<?xml version="1.0" encoding="UTF-8"?>
<svg id="b" data-name="レイヤー 2" xmlns="http://www.w3.org/2000/svg" viewBox="0 0 389.88 152.97">
  <g id="c" data-name="レイヤー 2">
    <g>
      <rect x="115.31" width="274.09" height="53.91" style="fill: #e8f506; stroke-width: 0px;"/>
      <rect y="99.06" width="389.88" height="53.91" style="fill: #e8f506; stroke-width: 0px;"/>
      <g>
        <path d="M164.68,21.71h-41.64c-.28,0-.39-.05-.39-.11-.06-.05.05-.17.33-.28.28-.06.39-.17.39-.23-.05-.05-.17-.11-.45-.11h-6.52c-.56,0-.9-.28-1.07-.79-.11-.51.11-.79.62-.79h10.9c.28,0,.39.06.45.11,0,.05-.11.17-.39.22-.28.11-.39.22-.34.28,0,.05.11.11.39.11h6.52c.62,0,1.13-.17,1.51-.56.34-.34.51-.84.51-1.46v-1.18c0-.62.28-1.01.84-1.29l.22-.06c.39-.22.62-.56.62-1.01s-.22-.67-.67-.67h-14.27c-.56,0-.9-.28-1.07-.79-.11-.51.11-.78.62-.78h13.38c.62,0,1.13-.17,1.52-.56.34-.34.5-.84.5-1.46v-1.12c0-.62-.16-1.12-.5-1.52-.39-.34-.9-.51-1.52-.51h-15.23c-.56,0-.9-.28-1.07-.79-.11-.51.11-.79.62-.79h15.68c.62,0,1.13-.17,1.52-.56.34-.34.5-.84.5-1.46v-1.52c0-.67.23-1.18.62-1.57s.9-.51,1.57-.45l6.58.51c.39.06.73.17.96.39.22.28.22.51-.05.73-.05.11-.11.17-.22.17-.34.23-.62.51-.9.79-.28.28-.39.67-.39,1.07v.22c0,.51.17.96.45,1.24.28.28.73.45,1.24.45h6.52c.62,0,1.18-.28,1.57-.79l2.02-2.59c.39-.51.9-.79,1.52-.79.45,0,.9.17,1.29.45.34.28.73.62,1.13.9s.79.62,1.18,1.01c.5.39.5.73-.11.9-.56.28-.62.56-.11.96l.84.73c.22.17.39.39.51.67.05.28,0,.45-.23.56-.28.17-.67.28-1.12.28h-6.63c-.28,0-.45-.06-.45-.11-.05-.06.11-.17.39-.28.28-.05.39-.17.39-.22-.05-.06-.22-.11-.5-.11h-7.87c-.62,0-1.12.17-1.46.51-.39.39-.56.9-.56,1.52v1.8c0,.28-.05.51-.22.73-.17.28-.34.45-.62.51l-.62.28c-.17.06-.22.17-.22.34s.05.22.22.22h6.85c.62,0,1.18-.22,1.57-.73l1.85-2.36c.45-.51.96-.79,1.52-.79.39,0,.84.17,1.24.45.62.45,1.35.96,2.14,1.57s1.57,1.29,2.3,1.91c.23.17.39.39.45.67.05.28,0,.45-.17.56-.28.17-.68.28-1.13.28h-14.84c-.62,0-1.13.17-1.46.51-.39.39-.56.9-.56,1.52v1.46c0,.62.17,1.13.56,1.46.33.39.84.56,1.46.56h8.71c.62,0,1.18-.28,1.57-.79l2.03-2.59c.45-.56.95-.84,1.57-.84.39,0,.85.17,1.24.45.62.51,1.4,1.12,2.3,1.8.84.67,1.69,1.35,2.42,1.97.28.17.45.39.51.67.05.28,0,.51-.22.62-.28.17-.68.28-1.13.28ZM131.92,52.05c-.39.28-.96.62-1.57.9s-1.35.51-2.14.67c-.84.17-1.68.28-2.53.28h-.56c-.39,0-.62-.17-.62-.56v-4.27c0-.17-.05-.17-.11-.11-.11.06-.17.06-.17-.11v-22.87c0-1.4.56-2.08,1.69-2.08.39,0,.73.06,1.07.23l5.34,2.08c.28.06.56.11.73.11h13.6c.56,0,1.07-.23,1.51-.67l1.69-1.86c.39-.51.9-.73,1.46-.73.39,0,.84.17,1.24.45l4.89,3.71c.28.28.45.51.5.78.06.28-.11.56-.39.73q-.05.05-.11.05c-.34.17-.62.39-.85.67-.22.28-.33.62-.33,1.01v4.55c0,.11.05.17.17.11.05-.06.11-.06.11.11v10.62c0,1.07-.11,2.02-.28,2.87s-.56,1.63-1.13,2.3c-.62.62-1.4,1.18-2.47,1.63-1.07.39-2.53.73-4.27.96-.62.06-1.12-.06-1.51-.34-.39-.34-.62-.84-.73-1.46-.34-1.63-.96-2.81-1.91-3.54-.96-.73-2.48-1.29-4.44-1.69-.22-.06-.33-.23-.33-.39,0-.23.11-.34.33-.34.34.06.85.06,1.57.11.68.06,1.4.06,2.19.11.73.05,1.46.05,2.19.11.68.05,1.18.05,1.52.05.73,0,1.12-.39,1.12-1.12v-2.08c0-.62-.16-1.12-.5-1.52-.39-.34-.9-.51-1.52-.51h-3.37l-.16.06c-.17.05-.28.05-.34.05-.05.06-.17.06-.22.06h-8.04c-.62,0-1.13.17-1.46.51-.39.39-.56.9-.56,1.52v2.08c0,.11.06.17.17.11.06-.06.11-.06.11.11v5.79c0,.17-.17.45-.56.73ZM132.76,32.33c.34.39.84.56,1.46.56h11.86c.62,0,1.13-.17,1.52-.56.33-.34.5-.84.5-1.46v-.95c0-.62-.17-1.13-.5-1.52-.39-.34-.9-.51-1.52-.51h-11.86c-.62,0-1.13.17-1.46.51-.39.39-.56.9-.56,1.52v.95c0,.62.17,1.12.56,1.46ZM132.76,39.07c.34.39.84.56,1.46.56h11.35c.06,0,.17,0,.22-.06.06,0,.17,0,.34-.05l.17-.06h1.68c.28,0,.39-.11.39-.39v-.22c0-.17-.05-.17-.11-.11-.11.05-.17,0-.17-.11v-2.14c0-.62-.17-1.12-.5-1.52-.39-.34-.9-.51-1.52-.51h-11.86c-.62,0-1.13.17-1.46.51-.39.39-.56.9-.56,1.52v1.13c0,.62.17,1.12.56,1.46Z" style="fill: #000; stroke-width: 0px;"/>
        <path d="M246.85,51.83c-.28.28-.73.51-1.35.79s-1.3.51-2.14.67c-.84.17-1.85.28-2.92.28h-.79c-.5,0-.79-.28-.79-.79l-.16-13.88c0-1.63-.51-2.42-1.52-2.42-.51,0-1.13.23-1.8.67-2.42,1.52-5.23,2.92-8.37,4.21-.28.06-.45,0-.56-.17-.11-.17-.11-.28.06-.45,2.75-2.08,5.17-4.27,7.25-6.69,2.02-2.36,3.77-4.83,5.23-7.42.45-.84.51-1.52.22-2.02-.34-.51-1.01-.79-1.97-.79h-7.47c-.22,0-.22-.06,0-.11.17-.06.11-.11-.05-.11h-.51c-.22,0-.45-.06-.62-.23-.17-.11-.34-.28-.39-.51v-.05c-.11-.51.11-.79.62-.79h4.95c.17,0,.22.05.05.11h-.11c-.17.05-.11.11.05.11h6.01c.39,0,.79-.11,1.13-.34.33-.23.56-.51.73-.9s.34-.84.51-1.24.28-.84.45-1.24c.05-.22.17-.39.45-.51.17-.06.34-.22.39-.45.06-.17.17-.39.22-.67.11-.28.11-.56-.05-.73-.17-.17-.39-.28-.67-.28h-9.28c-.56,0-.9-.28-1.07-.79-.11-.51.11-.79.62-.79h9.66c.45,0,.85-.11,1.24-.39.33-.28.56-.62.67-1.07.05-.34.17-.67.22-1.01s.17-.67.22-1.01c.17-.73.06-1.29-.28-1.74-.39-.39-.96-.62-1.69-.62h-11.18c-.56,0-.9-.28-1.07-.79-.11-.51.11-.78.62-.78h12.59c.51,0,.96-.17,1.35-.51.34-.28.56-.73.62-1.24l.34-3.2c.05-.62.33-1.12.73-1.52.39-.34.96-.45,1.57-.34l7.81,1.24c.45.05.79.22,1.01.51.17.28.11.56-.16.73-.06.11-.11.17-.23.17-.39.17-.73.39-1.01.67-.28.28-.5.62-.56,1.01-.06.28-.11.51-.11.56-.11.56,0,1.01.28,1.35.28.39.68.56,1.3.56h9.05c.62,0,1.18-.23,1.57-.73l2.25-2.86c.39-.51.9-.79,1.52-.79.45,0,.9.17,1.29.45.28.17.56.39.85.62.28.28.56.51.84.73.17.17.17.28,0,.34-.17.11-.22.22-.05.39l2.7,2.13c.28.17.45.39.56.62.05.28,0,.45-.17.62-.28.17-.67.28-1.18.28h-11.29c-.23,0-.23-.06,0-.11.16-.05.11-.11-.06-.11h-8.54c-1.07,0-1.74.51-2.03,1.57-.16.56-.28,1.12-.45,1.69s-.34,1.12-.5,1.69c-.06.22-.23.39-.45.45l-.11.06c-.11.05-.22.17-.28.34-.05.17,0,.28.23.28h11.41c.62,0,1.18-.22,1.57-.73l1.91-2.47c.45-.51.96-.79,1.57-.79.39,0,.84.17,1.24.45.62.51,1.35,1.07,2.19,1.68.84.62,1.63,1.29,2.36,1.91.22.17.39.39.45.67s0,.45-.17.56c-.28.17-.67.28-1.12.28h-12.87c-1.07,0-1.74.28-2.02.79-.28.56-.11,1.24.51,2.08.39.51.84.96,1.24,1.4.39.51.84.96,1.29,1.35.39.34.85.51,1.35.51h3.2c.62,0,1.18-.22,1.57-.73l2.42-3.04c.39-.51.9-.78,1.52-.78.45,0,.84.11,1.24.39.73.56,1.57,1.24,2.59,1.97.96.73,1.91,1.52,2.75,2.25.28.17.45.39.56.67.06.28,0,.45-.16.56-.39.17-.79.28-1.24.28h-7.3c-1.8,0-2.81.34-2.98.95-.22.62.45,1.35,2.02,2.19,1.52.79,3.09,1.46,4.72,2.08,1.57.62,3.14,1.12,4.72,1.52.17.06.39.11.62.11.17.06.39.06.56.11.34.05.45.28.39.56s-.17.51-.45.67c-2.53,1.29-4.33,3.03-5.34,5.11-.28.51-.56.96-.9,1.24-.34.34-.73.51-1.13.51s-.84-.17-1.35-.51l-.67-.51c-.62-.51-1.24-.73-1.74-.73-.79,0-1.18.73-1.18,2.14l-.05,11.52c0,.11,0,.17-.05.22-.11.17-.39.34-.9.56-.5.22-1.07.45-1.74.67-.73.23-1.46.45-2.25.62-.84.17-1.57.22-2.25.22h-.79c-.5,0-.79-.28-.79-.79v-1.12c0-.56-.17-1.01-.5-1.35-.39-.39-.85-.56-1.4-.56h-9.22c-.62,0-.95.34-.95.95v.96c0,.17-.17.34-.45.62ZM248.25,29.74h9.67c.56,0,1.07-.22,1.46-.62l.96-1.01c.67-.73.79-1.57.28-2.47l-.39-.73c-.39-.73-.95-1.07-1.8-1.07h-8.88c-.73,0-1.3.34-1.74.95-.62.96-1.24,1.86-1.85,2.64-.62.84-.45,1.46.5,1.74l1.13.45c.28.05.51.11.67.11ZM247.7,38.01c.33.39.84.56,1.46.56h8.04c.62,0,1.13-.17,1.52-.56.33-.34.5-.84.5-1.46v-3.2c0-.62-.17-1.12-.5-1.52-.39-.34-.9-.51-1.52-.51h-8.04c-.62,0-1.13.17-1.46.51-.39.39-.56.9-.56,1.52v3.2c0,.62.17,1.12.56,1.46ZM247.75,47.28c.28.28.73.45,1.24.45h8.37c.62,0,1.13-.17,1.52-.56.33-.34.5-.84.5-1.46v-4.61c0-.67-.34-1.01-1.01-1.01h-1.01l-8.2.06c-.62,0-1.07.17-1.46.56s-.56.84-.51,1.46l.05,2.25v1.63c.06.51.22.96.51,1.24ZM250.61,21.43c.34.56,1.01.84,2.02.84h3.15c.96,0,1.63-.28,1.97-.79s.34-1.24-.05-2.08c-.11-.28-.22-.62-.34-.95-.11-.28-.22-.62-.39-.96-.17-.39-.39-.73-.73-1.01-.33-.22-.73-.34-1.18-.34h-1.63c-.9,0-1.51.45-1.91,1.29-.17.56-.45,1.18-.79,1.8-.39.95-.45,1.69-.11,2.19ZM267.98,35.53l.11-.06-.11-.17v.22Z" style="fill: #000; stroke-width: 0px;"/>
        <path d="M379.55,51.32c-1.18.05-2.42.17-3.71.22-1.29.06-2.64.11-3.94.17-1.29.05-2.59.05-3.76.05-3.32,0-6.18-.34-8.66-1.01-2.47-.67-4.32-1.85-5.62-3.54-.17-.17-.11-.34.17-.39.17-.06.22-.22.11-.39-.85-1.29-1.24-2.87-1.24-4.83,0-1.69.34-3.26,1.01-4.67.62-1.4,1.52-2.75,2.59-3.94,1.07-1.18,2.25-2.25,3.66-3.2,1.35-.95,2.75-1.85,4.16-2.7.45-.22.73-.51.79-.84.06-.34-.16-.62-.56-.79-.62-.22-1.18-.34-1.8-.34-1.35,0-2.59.22-3.77.73s-2.31,1.18-3.26,2.02c-1.01.84-1.96,1.74-2.81,2.75-.84,1.01-1.68,2.02-2.42,2.98-.45.56-1.01.84-1.63.84-.39,0-.84-.17-1.24-.45l-3.65-2.75c-.62-.39-.9-.9-.9-1.52-.05-.56.22-1.07.73-1.57,1.35-1.29,2.59-2.53,3.77-3.82,1.12-1.29,2.19-2.59,3.14-3.88.17-.22.17-.28-.11-.17-.22.11-.28.06-.17-.17.51-.67.96-1.35,1.35-2.02.5-.73.62-1.35.33-1.8-.28-.45-.9-.67-1.74-.73-.73,0-1.52,0-2.31-.05-.84-.06-1.63-.06-2.42-.11-.5-.05-.96-.28-1.29-.67-.34-.34-.51-.79-.51-1.35v-3.65c0-.73.22-1.24.67-1.63.39-.39.96-.51,1.69-.45,1.29.17,2.59.22,3.99.28,1.35.05,2.59.11,3.77.11h1.12c.28,0,.56-.11.85-.34.22-.17.39-.45.45-.73.11-.51.22-1.01.33-1.52.06-.51.17-1.01.23-1.52.05-.62.33-1.07.73-1.46.39-.34.84-.45,1.46-.39l4.77.39c.62.06,1.13.34,1.46.73.33.45.45,1.01.28,1.63-.05.05-.05.11-.05.17s0,.17-.05.23c-.17.73-.11,1.35.28,1.8.34.45.9.62,1.68.56,2.03-.17,4.05-.34,6.02-.56,1.96-.17,3.88-.45,5.79-.73.45-.05.67.11.67.56v.28c0,.22.11.34.34.34l.11-.11c.22,0,.34.11.34.34l-.05,4.27c0,.51-.17.96-.45,1.29-.33.39-.79.62-1.29.67-2.31.28-4.78.51-7.42.67-2.64.17-5.23.34-7.76.45-.79.06-1.35.45-1.74,1.12-.05.17-.17.34-.22.51-.11.17-.22.28-.28.45-.62,1.24-.28,1.74,1.07,1.57.62-.06,1.18-.11,1.8-.17h1.57c2.7,0,4.83.84,6.41,2.47.5.62,1.13.9,1.85.9.17,0,.28,0,.45-.06.11-.05.28-.11.45-.17.73-.34,1.46-.67,2.19-.95.73-.28,1.46-.62,2.19-.96.9-.39,1.8-.84,2.7-1.24.84-.39,1.74-.79,2.59-1.18.28-.17.62-.22.96-.22.84,0,1.46.45,1.8,1.29l1.57,3.82c.28.62.33,1.18.11,1.69-.28.51-.73.84-1.35,1.07-2.08.62-4.1,1.35-6.13,2.13-2.02.84-4.05,1.69-6.01,2.53-.39.17-.68.45-.9.79-.22.34-.33.73-.28,1.12l.11,6.13c0,.22-.11.39-.28.45-.22.11-.34.28-.34.51.06.11.06.28.06.45,0,.51-.28.79-.79.79h-2.87c-.28,0-.28-.06-.05-.17.11-.06.17-.06.17-.11h-1.85c-.62,0-1.13-.17-1.46-.56-.39-.39-.56-.84-.5-1.46.05-.17.05-.28.05-.45v-.34c.05-1.18-.28-1.8-1.01-1.8-.39,0-.79.17-1.24.51-1.8,1.4-2.7,2.98-2.7,4.61,0,1.18.45,1.97,1.4,2.47.28.11.28.22,0,.28-.28.11-.28.22,0,.28.51.23,1.18.39,2.03.45.84.05,1.79.11,2.97.11,2.08,0,4.38-.11,6.8-.34,2.42-.17,4.78-.51,7.03-.9.73-.17,1.35-.06,1.8.34.45.39.67.95.67,1.74l-.17,4.5c-.05.51-.22.96-.5,1.29-.28.34-.73.56-1.24.62-.95.11-1.96.23-3.14.34Z" style="fill: #000; stroke-width: 0px;"/>
        <path d="M15.41,150.74c-.45.22-.96.45-1.57.67-.62.22-1.24.39-1.97.56-.73.17-1.46.23-2.19.23h-.73c-.5,0-.79-.23-.79-.73v-2.08c0-.28-.11-.34-.33-.22-.22.06-.34,0-.34-.22v-20.35c0-1.68-.45-2.53-1.35-2.53-.56,0-1.24.34-2.02,1.01-.5.45-1.07.9-1.63,1.29-.56.45-1.13.9-1.74,1.29-.16.17-.33.17-.56,0-.23-.17-.23-.34-.06-.51.56-.9,1.13-1.86,1.69-2.87s1.12-2.08,1.74-3.2c.06-.05.11-.17.06-.22-.06-.06-.17,0-.22.06-.11.05-.17.05-.23,0-.05-.06-.05-.11,0-.17,1.57-3.15,3.04-6.52,4.44-10.17,1.4-3.65,2.59-7.31,3.54-11.07.17-.62.51-1.07.96-1.35s1.01-.28,1.63-.11l7.25,2.36c.39.17.67.34.84.62.17.28.05.51-.22.67-.17.06-.28.11-.34.11-.39.17-.73.34-1.07.51-.34.23-.62.56-.79.96-1.63,3.65-3.43,6.97-5.34,9.95-.22.39-.28.73-.17,1.01.11.34.39.56.79.73l1.01.39c.28.05.51.05.68-.06.16-.05.39-.05.62,0h.05c.28.06.34.23.17.45-.17.17-.34.34-.56.45-.28.17-.56.34-.73.56-.17.28-.28.56-.28.84v25.63c0,.28.11.34.34.22.22-.05.33,0,.33.22v4.05c0,.17-.05.34-.11.39-.11.17-.39.39-.79.62ZM39.18,150.57c-.28.23-.73.45-1.35.67s-1.29.45-2.14.62c-.84.17-1.85.23-2.92.23h-.79c-.51,0-.79-.28-.79-.79v-11.8c0-.23-.11-.28-.34-.23-.22.11-.34.06-.34-.22v-19.22c0-2.19-.45-3.26-1.29-3.26-.67,0-1.57.62-2.64,1.86-2.75,3.15-5.84,5.84-9.28,8.15-.16.17-.39.11-.56-.05-.17-.11-.23-.28-.11-.45.96-1.52,1.85-3.2,2.81-5.06.96-1.85,1.85-3.76,2.75-5.84.11-.17.05-.28-.17-.22-.22.11-.28.05-.17-.17.84-2.08,1.69-4.27,2.42-6.46.73-2.19,1.4-4.44,2.02-6.69.17-.62.51-1.12,1.01-1.4.51-.28,1.07-.28,1.69-.05l7.36,2.59c.39.17.67.34.84.62.11.28,0,.51-.28.67q-.05,0-.05.05h-.17c-.39.17-.79.34-1.18.51-.39.22-.67.51-.84.9-.45.84-.9,1.69-1.35,2.47-.45.84-.9,1.63-1.35,2.36-.11.22-.06.28.17.17.22-.05.28.06.16.23l-.16.22c-.23.39-.11.62.28.62h8.99c.62,0,1.18-.28,1.63-.79l2.42-3.15c.39-.56.9-.84,1.52-.84.5,0,.96.17,1.29.45.73.56,1.63,1.24,2.59,2.02s1.86,1.57,2.7,2.3c.28.17.45.39.5.67.06.28,0,.51-.22.62-.28.17-.67.28-1.18.28h-11.69c-.62,0-1.13.17-1.46.51-.39.39-.56.9-.56,1.52v7.36c0,.73.39,1.12,1.12,1.12h.11c.62,0,1.18-.28,1.63-.79l2.08-2.75c.39-.56.9-.84,1.52-.84.51,0,.9.17,1.29.51.68.51,1.46,1.12,2.36,1.86.84.73,1.69,1.4,2.42,2.02.28.17.45.39.51.67.05.28,0,.51-.22.62-.28.17-.68.28-1.13.28h-9.66c-.62,0-1.13.17-1.46.51-.39.39-.56.9-.56,1.52v7.98c0,.28.11.34.33.22l.34-.11v.28h1.46c.62,0,1.18-.28,1.63-.79l.51-.67c.11-.17.05-.22-.11-.17-.16.06-.22.06-.11-.11l2.42-3.2c.05-.05.17-.05.45.06.28.17.56.28.84.45.28.17.56.28.85.39.28.17.39.22.45.17.22-.11.45-.06.73.11.73.56,1.46,1.18,2.3,1.8.79.67,1.57,1.35,2.31,1.97.22.17.39.39.5.67.05.28,0,.51-.22.62-.28.17-.67.28-1.18.28h-10.79c-.62,0-1.13.17-1.46.51-.39.39-.56.9-.56,1.52v10.85c0,.11-.17.28-.45.51Z" style="fill: #000; stroke-width: 0px;"/>
        <path d="M131.52,150.57l-2.47-3.76c-.22-.34-.28-.67-.17-1.01.05-.28.34-.56.73-.73l.28-.11c.67-.28.84-.79.45-1.4-.17-.28-.22-.56-.11-.73.05-.17.28-.34.62-.39,2.98-.51,5.73-1.18,8.2-2.02,2.42-.78,4.55-1.91,6.29-3.32,1.74-1.4,3.03-3.15,3.99-5.34s1.4-4.89,1.4-8.09c0-4.27-.62-7.42-1.91-9.44-1.3-2.02-2.98-3.03-4.95-3.03l-.34.06c-.17,0-.39.05-.62.11l-1.24.51q-.05,0-.11.05l-.22.06c-.9.17-1.74.45-2.47.84-.17.11-.28.17-.28.17,0,.06.11,0,.34-.11.39-.17.39-.11.11.17-1.01.78-1.97,1.8-2.81,2.98-.85,1.18-1.57,2.47-2.19,3.88s-1.13,2.81-1.46,4.27c-.39,1.52-.56,2.92-.56,4.27v1.4c0,.56.05,1.18.11,1.91.05.62-.05,1.12-.39,1.52s-.84.67-1.46.73l-4.44.28c-.56.06-1.01-.11-1.4-.45-.39-.28-.62-.73-.68-1.29-.17-1.07-.28-2.25-.33-3.6-.11-1.35-.17-2.75-.17-4.16,0-.62,0-1.29.05-2.02,0-.73,0-1.46.05-2.19.06-.28,0-.51-.17-.62-.16-.06-.33-.06-.56.05-.62.28-.85.06-.79-.56.11-1.86.28-3.82.5-5.79.22-1.97.51-4.05.79-6.13.05-.73.17-1.52.22-2.25.06-.73.11-1.46.17-2.13.05-.62.22-1.13.62-1.52.39-.34.9-.51,1.52-.45l4.66.17c.73.05,1.3.28,1.63.73.34.51.39,1.12.22,1.85-.05.34-.16.67-.22,1.07-.11.39-.22.79-.28,1.18-.39,1.63-.22,2.47.45,2.47.39,0,1.07-.39,2.02-1.13,1.3-1.07,2.75-1.91,4.38-2.64,1.63-.67,3.43-1.01,5.4-1.01,1.4,0,2.75.22,4.05.73,1.3.51,2.48,1.18,3.54,2.08.45.39.96.45,1.52.17.22-.06.45-.11.73-.06.28.06.51.17.68.34,1.68,1.74,3.03,4.05,4.05,6.8,1.01,2.81,1.52,6.07,1.52,9.72,0,2.92-.34,5.62-1.01,8.04-.11.62-.45,1.01-1.07,1.29l-.9.34c-.56.28-.96.67-1.13,1.29-1.57,4.66-4.27,8.32-8.15,11.01-3.88,2.7-8.6,4.61-14.22,5.79-.84.17-1.51-.11-2.02-.84Z" style="fill: #000; stroke-width: 0px;"/>
        <path d="M262.36,150.23c-2.98.28-6.29.39-9.83.39-6.35,0-11.07-.73-14.56-2.47-.11-.05-.11-.11-.05-.62h.11c.06-.06.06-.11-.05-.17-3.43-2.13-5.12-5.34-5.12-9.55,0-1.29.11-2.47.28-3.54s.33-2.08.5-2.92c.06-.51.34-.96.73-1.29.39-.28.9-.39,1.4-.34l4.83.39c.73.05,1.24.34,1.57.78.28.45.39,1.01.22,1.69-.22,1.07-.33,2.08-.33,3.09,0,1.57.78,2.87,2.42,3.94,1.63,1.07,4.32,1.63,8.09,1.63h.28q.05,0,.05.06-.05.51,0,.51c3.09,0,6.01-.62,8.88-.9,2.87-.28,5.45-.67,7.87-1.18.73-.17,1.35-.11,1.85.28.45.39.67.95.67,1.68l.06,5.45c0,.51-.11.9-.39,1.29-.28.39-.68.62-1.18.67-2.59.51-5.34.84-8.32,1.12ZM263.99,115.22c-1.24.06-2.53.11-3.82.17-1.35.06-2.7.11-3.99.11-1.29.06-2.59.06-3.77.06h-2.47c-.84,0-1.63,0-2.36-.06-.22,0-.22-.05,0-.17.22-.06.17-.45-.11-.45-1.51-.05-2.86-.05-4.21-.11-1.4-.06-2.7-.11-3.99-.17-.56-.05-1.01-.28-1.35-.67-.34-.34-.51-.79-.51-1.35v-4.72c0-.67.22-1.18.62-1.57s.96-.51,1.63-.45c1.91.17,3.99.28,6.18.34,2.19.05,4.61.11,7.14.11,1.4,0,2.81,0,4.33-.06,1.51-.05,2.98-.11,4.44-.17,1.46-.06,2.86-.17,4.27-.28,1.35-.06,2.59-.17,3.71-.28.11,0,.17.06.17.17,0,.17-.06.28-.17.28l-.11.05c-.22.11-.33.28-.33.51v6.52c0,.56-.17,1.01-.51,1.35-.34.39-.79.56-1.35.62-1.07.06-2.19.17-3.43.22Z" style="fill: #000; stroke-width: 0px;"/>
        <path d="M369.77,150.35c-.39-.17-.68-.45-.9-.73l-2.64-4.05c-.56-.84-.67-1.57-.39-2.13.28-.56.9-.96,1.85-1.12,3.37-.62,6.01-1.57,7.93-2.92,1.91-1.35,3.32-2.86,4.16-4.61.11-.28.05-.39-.22-.39l-.22.11c-.28,0-.34-.11-.23-.39.28-.73.51-1.46.62-2.19.11-.73.16-1.52.16-2.25,0-2.42-.5-4.55-1.51-6.41-1.01-1.8-2.42-3.2-4.21-4.16-.39-.17-.68-.28-.9-.28-.79,0-1.35.45-1.63,1.41-.79,2.47-1.63,4.89-2.59,7.19-.96,2.36-2.08,4.55-3.26,6.57-.22.39-.34.84-.28,1.24.06.45.22.84.51,1.18.11.11.22.22.34.34.05.11.16.22.22.28.39.39.62.84.56,1.24-.05.45-.28.84-.67,1.18l-.9.67c-.28.28-.22.34.11.17.39-.17.39-.11.11.11l-3.15,2.47c-.34.28-.67.28-1.01-.05l-.11-.11c-.28-.28-.56-.34-.9-.17l-.17.05c-.28.17-.51.11-.67-.17-.17-.28-.39-.28-.56,0-.17.11-.28.22-.39.34-.11.11-.22.22-.34.34-.28.28-.28.34.11.17.39-.11.39-.05.11.17-1.4,1.29-2.75,2.19-4.05,2.7-1.29.56-2.75.9-4.38.95-.28,0-.56.06-.79.17l-.45.22h-.05l-.17.06h-.34c-1.24,0-2.42-.22-3.54-.79-1.18-.51-2.19-1.24-3.03-2.25-.9-1.01-1.63-2.25-2.13-3.71-.56-1.46-.85-3.15-.85-5.06,0-2.36.39-4.72,1.18-7.08.73-2.3,1.8-4.5,3.2-6.58.28-.39.56-.62.9-.73l.56-.22c.16-.06.28-.17.45-.28s.28-.23.39-.39c.33-.39.67-.84,1.01-1.24s.67-.84,1.07-1.24c.28-.28.45-.62.56-1.01.05-.39.05-.73-.05-1.07l-.96-3.03c-.22-.73-.45-1.46-.67-2.08-.28-.62-.56-1.29-.85-2.02-.28-.62-.33-1.24-.11-1.74s.67-.9,1.35-1.12l4.49-1.4c1.4-.39,2.25.11,2.64,1.63.11.62.22,1.18.39,1.69.11.56.22,1.13.39,1.63l.45,1.46c.28.96.85,1.29,1.8.9,1.63-.67,3.2-1.18,4.72-1.57s3.09-.67,4.72-.84c.62-.06,1.01-.39,1.12-1.01l.17-.96c.05-.56.17-1.18.22-1.8.06-.62.11-1.24.17-1.85.11-1.52.9-2.19,2.36-2.08l4.66.45c.73.06,1.3.34,1.63.79.34.51.39,1.07.23,1.8-.06.06-.06.17-.06.23,0,.11,0,.22-.05.28l-.22,1.01c-.05.39-.17.73-.28,1.01-.16.34-.45.56-.84.73l-.33.17c-.34.17-.56.39-.62.73l-.22,1.18c-.11.39.06.67.45.79,2.08.62,3.99,1.46,5.67,2.64s3.15,2.64,4.38,4.27c1.18,1.63,2.14,3.48,2.81,5.56.62,2.08.96,4.38.96,6.8v.28l.56-.28c.39-.11.56,0,.56.39-.11,2.86-.67,5.4-1.63,7.58-1.01,2.25-2.36,4.22-4.05,5.85s-3.65,3.03-5.9,4.1c-2.3,1.07-4.77,1.91-7.42,2.42-.39.06-.79.06-1.12-.11ZM347.57,137.65c.39.67,1.07,1.01,1.91,1.01,1.24,0,2.59-.73,4.05-2.19.28-.28.45-.67.51-1.12.05-.39-.05-.84-.28-1.24-.39-.73-.79-1.52-1.18-2.31-.39-.78-.79-1.63-1.18-2.47-.51-1.07-1.07-1.63-1.69-1.63-.5,0-.9.34-1.24.96-.39.62-.67,1.35-.9,2.19-.22.84-.39,1.63-.51,2.42-.11.84-.17,1.4-.17,1.74,0,1.07.22,1.97.68,2.64ZM359.7,126.01c.62,0,1.18-.51,1.63-1.57.28-.56.5-1.12.78-1.74.23-.62.45-1.18.62-1.8.28-.73.33-1.35.11-1.8-.22-.45-.62-.67-1.24-.67-.22,0-.51.05-.79.11-.34.11-.67.22-1.01.34-.34.17-.67.28-.96.39-.28.17-.56.28-.79.39-.5.22-.79.56-.96.95-.16.45-.11.9.06,1.41.17.39.28.78.45,1.18s.34.84.51,1.24c.45,1.07.95,1.57,1.57,1.57Z" style="fill: #000; stroke-width: 0px;"/>
      </g>
    </g>
  </g>
</svg>