<?xml version="1.0" encoding="UTF-8"?>
<svg id="b" data-name="レイヤー 2" xmlns="http://www.w3.org/2000/svg" viewBox="0 0 410.98 98.54">
  <g id="c" data-name="レイヤー 5">
    <g>
      <g>
        <g>
          <g>
            <path d="M127.43,97.54c-.37,0-1.3-.14-1.83-1.42l-3.83-9.38c-.29-.72-.53-1.54-.09-2.26.45-.73,1.35-.91,2.17-.98l10.63-.93,9.73-14.16-.41-2.8.91-.97c.46-.48,1.08-.77,1.67-.77.73,0,1.28.46,1.33,1.12l3.06,20.61,26.35-16.46c.26-.18.5-.28,1.7-.71.25-.1.52-.16.76-.16.52,0,.96.25,1.18.67.23.43.17.96-.14,1.42l-9.04,13.12,10.74-4.04.11,1.31c.05.6-.23,1.76-1.61,2.29l-14.02,5.36c-.28.11-.54.16-.79.16-.51,0-.95-.25-1.17-.66-.23-.44-.18-.96.15-1.43l7.29-10.53-21.56,13.31c-.46.29-1.17.62-1.89.62-.91,0-1.58-.55-1.7-1.41l-2.37-15.73-15.26,23.37c-.76,1.18-1.56,1.42-2.09,1.42ZM127.8,92.2l4.46-6.45-7.53.66,3.06,5.79Z" style="fill: #000ef4; stroke-width: 0px;"/>
            <path d="M146.39,64.86c.19,0,.33.07.34.21l3.21,21.65c.03.21.15.29.3.29.12,0,.25-.05.38-.13l27.05-16.89c.19-.13.38-.21,1.51-.62.17-.07.31-.1.42-.1.32,0,.41.23.21.52l-10.84,15.74,12.49-4.7s.08.87-.97,1.27l-14.02,5.36c-.17.07-.32.1-.43.1-.32,0-.4-.23-.2-.53l10.01-14.46-25.63,15.82c-.5.31-.98.47-1.36.47s-.66-.17-.71-.56l-2.77-18.33-16.69,25.57c-.43.66-.87.97-1.26.97-.37,0-.69-.28-.9-.8l-3.83-9.38c-.53-1.32-.28-1.73,1.24-1.87l11.1-.97,10.22-14.87-.39-2.71.58-.62c.29-.31.67-.45.94-.45M134.3,84.57l-10.49.92c-.44.04-.55.25-.39.56l3.84,7.27c.13.24.3.36.48.36.16,0,.31-.09.45-.29l6.11-8.82M146.39,62.86c-.85,0-1.75.4-2.39,1.07l-.6.64-.66.7.14.95.28,1.94-9.24,13.45-10.16.89c-.65.06-2.16.19-2.93,1.45-.76,1.24-.2,2.63.01,3.16l3.83,9.39c.53,1.28,1.56,2.05,2.75,2.05.78,0,1.93-.33,2.93-1.88l13.82-21.17,1.98,13.14c.19,1.35,1.28,2.26,2.69,2.26.95,0,1.84-.42,2.41-.77l17.49-10.8-4.56,6.59c-.54.78-.61,1.7-.21,2.47.39.75,1.16,1.2,2.05,1.2.37,0,.76-.08,1.15-.23l14.01-5.35c1.69-.65,2.35-2.13,2.25-3.31l-.23-2.63-2.47.93-6.52,2.45,7.23-10.49c.53-.77.61-1.69.2-2.46-.4-.75-1.17-1.2-2.06-1.2-.36,0-.74.08-1.13.22-1.1.39-1.48.54-1.89.81l-25.03,15.63-2.84-19.13c-.14-1.13-1.1-1.95-2.32-1.95h0ZM126.33,87.27l3.9-.34-2.32,3.34-1.59-3h0Z" style="fill: #fff; stroke-width: 0px;"/>
          </g>
          <g>
            <path d="M181.86,92.19c-.51,0-.95-.25-1.17-.67-.23-.43-.18-.97.14-1.43l10.31-14.67c2.12-7.38,6.07-13.58,10.35-16.21.76-.47,1.35-.69,1.85-.69.68,0,1.21.4,1.38,1.04.25.78-.1,1.85-1.3,3.89-1.55,2.61-8.51,12.99-9.84,14.96-.03.52.04.91.22,1.12.23.26.72.32,1.08.32.8,0,1.92-.26,3.23-.75.56-.2,2.42-.91,2.42-.91l1.24-.47.12,1.32c.05.58-.22,1.72-1.54,2.3-.81.34-1.61.64-2.45.92-1.09.35-2.11.53-3.02.53-1.34,0-2.42-.39-3.14-1.12-.09-.09-.18-.19-.26-.3-1.79,2.64-5.19,7.63-6.88,9.75l-.16.21-1.77.72c-.26.11-.54.18-.8.18Z" style="fill: #000ef4; stroke-width: 0px;"/>
            <path d="M203.34,59.52c.22,0,.36.1.41.3.15.47-.19,1.4-1.2,3.12-1.61,2.71-9.21,14.04-9.95,15.11-.25,2.11.82,2.78,2.28,2.78,1.1,0,2.43-.38,3.59-.81.55-.2,2.43-.92,2.43-.92,0,0,.07.85-.94,1.29-.78.33-1.55.62-2.36.89-.99.32-1.91.48-2.71.48-1.88,0-3.12-.88-3.09-2.67,0,0-5.68,8.5-7.97,11.38l-1.53.62c-.17.07-.31.11-.43.11-.31,0-.4-.24-.2-.53l10.4-14.8c1.95-6.9,5.71-13.18,9.96-15.79.58-.36,1.02-.54,1.32-.54M193.51,73.66s4.98-7.38,6.48-9.56c1.21-1.75,1.87-2.78,1.87-2.78.08-.13.09-.2.03-.2-.04,0-.09.03-.17.08-2.68,1.99-6.28,6.88-8.21,12.45M203.34,57.52c-.7,0-1.43.26-2.37.83-4.45,2.73-8.55,9.08-10.74,16.62l-10.21,14.52c-.54.79-.62,1.71-.21,2.48.39.74,1.18,1.2,2.05,1.2.39,0,.79-.09,1.19-.26l1.51-.61.49-.2.33-.41c1.52-1.9,4.39-6.08,6.27-8.84.7.48,1.73.89,3.23.89,1.02,0,2.13-.19,3.32-.57.89-.29,1.71-.6,2.53-.95,1.63-.71,2.25-2.17,2.15-3.31l-.23-2.64-2.47.94s-1.85.71-2.4.91c-1.2.45-2.22.69-2.9.69-.14,0-.24-.01-.31-.02,0-.03,0-.06,0-.1,1.6-2.37,8.18-12.19,9.71-14.76,1.18-2,1.79-3.41,1.4-4.71-.31-1.05-1.22-1.73-2.33-1.73h0Z" style="fill: #fff; stroke-width: 0px;"/>
          </g>
          <g>
            <path d="M208.64,86.84c-3.3,0-4.33-1.2-4.61-2.2-.34-1.21.36-2.58,1.73-3.42l2.78-1.69-1.35,2.96c-.18.4-.17.6-.13.65.06.1.47.35,1.56.35.24,0,.49-.01.75-.04,9.05-.79,15.18-4.11,17.68-6-.22.02-.46.04-.72.06l-14.75,1.29c-3.49.3-5.93.45-7.67.45-2.4,0-4.76-.18-4.95-2.33-.46-5.24,15.91-12.04,28.01-13.1,1.45-.13,2.83-.19,4.11-.19,9.74,0,11.1,3.57,11.24,5.11.19,2.22-1.66,3.35-2.67,3.64l-2.15.61.97-2.01s.15-.37.1-.99c-.15-1.74-3.09-2.82-7.67-2.82-.94,0-1.94.05-2.97.14-13.32,1.17-22.64,6.78-24.04,8.71.32.06.89.11,1.87.11,1.7,0,4.2-.16,8.35-.52l12.11-1.06c1.54-.13,2.76-.2,3.75-.2,1.97,0,3.35.23,3.73,1.34.25.75-.1,1.45-.86,2.22,2.13-.81,4.25-1.65,6.12-2.41l3.5-1.37-.11,1.58c-.1,1.45-1.12,1.96-2.45,2.48-.89.34-1.78.69-2.68,1.04-8.02,3.12-17.12,6.67-27.12,7.54-.53.05-1.01.07-1.45.07Z" style="fill: #000ef4; stroke-width: 0px;"/>
            <path d="M231.08,64.65c6.74,0,10.03,1.81,10.24,4.19.17,1.98-1.95,2.59-1.95,2.59,0,0,.28-.57.2-1.51-.23-2.59-3.88-3.73-8.67-3.73-.98,0-2,.05-3.05.14-14.37,1.26-25.32,7.82-25.12,10.09.04.51,1.02.73,3.04.73,1.88,0,4.66-.19,8.43-.52l12.11-1.06c1.52-.13,2.73-.2,3.67-.2,4.71,0,2.7,1.58-.31,3.88-1.28.97-2.63,1.61-3.78,2.22,4.06-1.3,9.18-3.31,13.45-5.02l2.02-.79c-.05.71-.35,1.04-1.82,1.61-8.87,3.41-18.57,7.56-29.52,8.51-.5.04-.95.06-1.37.06-4.71,0-4.22-2.63-2.36-3.76-.77,1.68.34,2.42,2.34,2.42.26,0,.54-.01.84-.04,12.3-1.08,19.44-6.71,19.74-7.77.05-.19-.09-.29-.79-.29-.45,0-1.14.04-2.17.13l-14.75,1.29c-3.45.3-5.88.44-7.58.44-3.24,0-3.87-.51-3.95-1.41-.36-4.08,14.61-10.93,27.11-12.02,1.46-.13,2.8-.19,4.02-.19M231.08,62.65c-1.31,0-2.72.07-4.2.19-6.02.53-13.13,2.42-19.02,5.06-4.7,2.11-10.23,5.4-9.91,9.13.28,3.24,3.97,3.24,5.94,3.24.47,0,.99-.01,1.56-.03l-.22.14c-1.76,1.07-2.63,2.9-2.17,4.54.31,1.09,1.44,2.93,5.58,2.93.48,0,1-.02,1.54-.07,10.14-.89,19.3-4.45,27.39-7.6.9-.35,1.79-.7,2.68-1.04,1.49-.58,2.96-1.31,3.09-3.34l.21-3.15-2.94,1.15-2.02.79c-1.19.48-2.48.99-3.81,1.51-.01-.23-.06-.47-.14-.71-.68-2.02-3.28-2.02-4.67-2.02-1.02,0-2.27.07-3.84.2l-12.11,1.06c-3.62.32-5.96.47-7.61.51,3.42-2.34,11.38-5.92,21.61-6.81,1-.09,1.97-.13,2.88-.13,4.23,0,6.59.98,6.67,1.9.02.25,0,.43-.03.5l-2.7,4.35,5.07-1.59c1.79-.51,3.61-2.19,3.39-4.69-.16-1.81-1.67-6.02-12.23-6.02h0ZM209.42,80c.69-.05,1.44-.11,2.24-.18l11.16-.98c-3.04,1.51-7.57,3.11-13.55,3.63-.24.02-.46.03-.66.03-.12,0-.23,0-.33,0l1.14-2.49h0Z" style="fill: #fff; stroke-width: 0px;"/>
          </g>
          <g>
            <path d="M247.63,83.65c-4.71,0-7.22-1.38-7.46-4.11-.45-5.12,7.22-13.32,20.38-17.66,4.24-1.39,8.04-2.1,11.29-2.1,6.73,0,9.38,2.95,9.6,5.47.22,2.58-1.86,4.35-3.08,4.46l-1.51.13.47-1.44c.42-1.3.37-2.33-.17-3.07-.83-1.14-2.84-1.77-5.68-1.77s-6.15.61-9.51,1.71c-10.11,3.27-17.59,9.92-17.28,13.46.11,1.24,2.62,1.42,4.11,1.42,8.62,0,26.81-5.79,33.09-8.02,1.46-.52,3.62-1.34,3.62-1.34l1.24-.47.12,1.32c.05.58-.22,1.71-1.59,2.26l-2.49.99c-3.37,1.36-24.18,8.76-35.14,8.76h0Z" style="fill: #000ef4; stroke-width: 0px;"/>
            <path d="M271.84,60.78c5.67,0,8.4,2.26,8.6,4.56.18,2.05-1.51,3.32-2.17,3.38,1.42-4.34-1.88-6.15-6.8-6.15-2.91,0-6.4.63-9.82,1.76-10.26,3.31-18.35,10.15-17.97,14.49.15,1.68,2.12,2.33,5.11,2.33,9.79,0,30.47-7.02,33.42-8.07,1.47-.52,3.64-1.35,3.64-1.35,0,0,.07.83-.97,1.25l-2.49.99c-3.76,1.52-24.13,8.69-34.77,8.69-3.73,0-6.26-.88-6.47-3.2-.4-4.62,7.26-12.52,19.69-16.62,4.45-1.46,8.1-2.05,10.98-2.05M271.84,58.78h0c-3.36,0-7.27.72-11.61,2.15-12.16,4.01-21.61,12.4-21.06,18.7.2,2.29,1.83,5.02,8.46,5.02,11.12,0,32.12-7.46,35.52-8.84l2.47-.98c1.68-.68,2.32-2.14,2.22-3.28l-.23-2.64-2.47.94s-2.17.83-3.6,1.34c-6.23,2.21-24.27,7.96-32.75,7.96-2.29,0-2.98-.43-3.12-.53-.18-2.76,6.3-9.07,16.59-12.39,3.27-1.07,6.53-1.66,9.21-1.66,2.44,0,4.26.51,4.87,1.36.34.47.35,1.2.03,2.18l-.94,2.88,3.02-.26c1.77-.15,4.26-2.44,3.99-5.54-.26-2.95-3.19-6.38-10.59-6.38h0Z" style="fill: #fff; stroke-width: 0px;"/>
          </g>
        </g>
        <path d="M115.44,89.61c51.43-3.66,108.38-9.41,159.72-10.78,3.56-.05,7.12-.15,10.68-.15,0,0,.02.3.02.3-3.54.46-7.08.81-10.62,1.22-24.73,2.64-49.7,4.17-74.52,5.3-21.22,1.17-64.04,3.39-85.27,4.42,0,0-.02-.3-.02-.3h0Z" style="fill: #e8f506; stroke-width: 0px;"/>
        <g>
          <path d="M146.39,64.86c.19,0,.33.07.34.21l3.21,21.65c.03.21.15.29.3.29.12,0,.25-.05.38-.13l27.05-16.89c.19-.13.38-.21,1.51-.62.17-.07.31-.1.42-.1.32,0,.41.23.21.52l-10.84,15.74,12.49-4.7s.08.87-.97,1.27l-14.02,5.36c-.17.07-.32.1-.43.1-.32,0-.4-.23-.2-.53l10.01-14.46-25.63,15.82c-.5.31-.98.47-1.36.47s-.66-.17-.71-.56l-2.77-18.33-16.69,25.57c-.43.66-.87.97-1.26.97-.37,0-.69-.28-.9-.8l-3.83-9.38c-.53-1.32-.28-1.73,1.24-1.87l11.1-.97,10.22-14.87-.39-2.71.58-.62c.29-.31.67-.45.94-.45M134.3,84.57l-10.49.92c-.44.04-.55.25-.39.56l3.84,7.27c.13.24.3.36.48.36.16,0,.31-.09.45-.29l6.11-8.82M146.39,64.61c-.3,0-.75.14-1.12.53l-.59.62-.08.09.02.12.38,2.62-10.1,14.69-10.99.96c-.91.08-1.37.26-1.59.62-.27.43-.09,1.02.14,1.59l3.83,9.38c.34.83.86.96,1.13.96.35,0,.89-.19,1.47-1.08l16.33-25.02,2.67,17.68c.07.48.43.77.96.77.43,0,.96-.18,1.49-.51l24.61-15.19-9.33,13.47c-.22.32-.16.55-.1.66.05.1.19.26.5.26.15,0,.33-.04.52-.11l14.01-5.36c.96-.37,1.16-1.16,1.13-1.53l-.03-.33-.31.12-11.75,4.42,10.39-15.08c.22-.31.15-.54.1-.65-.09-.17-.28-.27-.51-.27-.15,0-.33.04-.52.11-1.1.4-1.33.49-1.55.64l-27.05,16.89c-.09.06-.18.09-.25.09-.03,0-.04-.03-.05-.08l-3.21-21.65c-.02-.19-.18-.42-.58-.42h0ZM127.74,93.43c-.09,0-.18-.09-.26-.23l-3.84-7.27c-.04-.08-.04-.12-.04-.13,0-.01.07-.05.23-.06l9.96-.87-5.81,8.38c-.08.12-.17.18-.24.18h0Z" style="fill: #000ef4; stroke-width: 0px;"/>
          <path d="M203.34,59.52c.22,0,.36.1.41.3.15.47-.19,1.4-1.2,3.12-1.61,2.71-9.21,14.04-9.95,15.11-.25,2.11.82,2.78,2.28,2.78,1.1,0,2.43-.38,3.59-.81.55-.2,2.43-.92,2.43-.92,0,0,.07.85-.94,1.29-.78.33-1.55.62-2.36.89-.99.32-1.91.48-2.71.48-1.88,0-3.12-.88-3.09-2.67,0,0-5.68,8.5-7.97,11.38l-1.53.62c-.17.07-.31.11-.43.11-.31,0-.4-.24-.2-.53l10.4-14.8c1.95-6.9,5.71-13.18,9.96-15.79.58-.36,1.02-.54,1.32-.54M193.51,73.66s4.98-7.38,6.48-9.56c1.21-1.75,1.87-2.78,1.87-2.78.08-.13.09-.2.03-.2-.04,0-.09.03-.17.08-2.68,1.99-6.28,6.88-8.21,12.45M203.34,59.27c-.35,0-.83.19-1.45.57-4.15,2.55-8,8.64-10.06,15.9l-10.37,14.76c-.16.23-.19.47-.1.66.09.17.27.27.5.27.16,0,.33-.04.53-.13l1.52-.61.06-.02.04-.05c1.92-2.41,6.26-8.82,7.59-10.8.1.51.32.95.67,1.3.58.59,1.48.9,2.61.9.84,0,1.77-.16,2.78-.49.83-.27,1.61-.57,2.38-.9,1.17-.51,1.1-1.5,1.09-1.54l-.03-.33-.31.12s-1.87.71-2.42.91c-1.42.53-2.59.8-3.5.8-.76,0-1.31-.19-1.64-.57-.35-.4-.49-1.03-.39-1.88.99-1.44,8.35-12.41,9.93-15.08,1.04-1.76,1.41-2.75,1.22-3.32-.08-.3-.32-.47-.65-.47h0ZM194.55,71.67c1.79-4.16,4.4-7.71,6.53-9.62-.31.47-.75,1.12-1.3,1.91-1.02,1.47-3.66,5.37-5.24,7.71h0Z" style="fill: #000ef4; stroke-width: 0px;"/>
          <path d="M231.08,64.65c6.74,0,10.03,1.81,10.24,4.19.17,1.98-1.95,2.59-1.95,2.59,0,0,.28-.57.2-1.51-.23-2.59-3.88-3.73-8.67-3.73-.98,0-2,.05-3.05.14-14.37,1.26-25.32,7.82-25.12,10.09.04.51,1.02.73,3.04.73,1.88,0,4.66-.19,8.43-.52l12.11-1.06c1.52-.13,2.73-.2,3.67-.2,4.71,0,2.7,1.58-.31,3.88-1.28.97-2.63,1.61-3.78,2.22,4.06-1.3,9.18-3.31,13.45-5.02l2.02-.79c-.05.71-.35,1.04-1.82,1.61-8.87,3.41-18.57,7.56-29.52,8.51-.5.04-.95.06-1.37.06-4.71,0-4.22-2.63-2.36-3.76-.77,1.68.34,2.42,2.34,2.42.26,0,.54-.01.84-.04,12.3-1.08,19.44-6.71,19.74-7.77.05-.19-.09-.29-.79-.29-.45,0-1.14.04-2.17.13l-14.75,1.29c-3.45.3-5.88.44-7.58.44-3.24,0-3.87-.51-3.95-1.41-.36-4.08,14.61-10.93,27.11-12.02,1.46-.13,2.8-.19,4.02-.19M231.08,64.4c-1.25,0-2.62.06-4.04.19-5.84.51-12.74,2.35-18.45,4.91-5.74,2.57-9.06,5.33-8.88,7.38.11,1.23,1.17,1.64,4.2,1.64,1.72,0,4.14-.14,7.61-.44l14.75-1.29c1.03-.09,1.71-.13,2.15-.13.3,0,.45.02.52.04-.52,1.02-7.34,6.46-19.5,7.52-.29.03-.56.04-.82.04-1.12,0-1.9-.25-2.19-.7-.21-.33-.18-.79.08-1.37l.34-.74-.7.42c-1.07.65-1.64,1.71-1.4,2.57.17.62.91,1.65,3.89,1.65.43,0,.9-.02,1.39-.06,9.89-.86,18.93-4.38,26.91-7.49.9-.35,1.8-.7,2.68-1.04,1.49-.58,1.92-.97,1.98-1.83l.03-.39-.37.14-2.02.79c-3.23,1.3-7.16,2.85-10.69,4.09.42-.26.85-.54,1.27-.86,2.21-1.69,3.45-2.69,3.17-3.5-.2-.58-1.1-.83-3.02-.83-.97,0-2.17.06-3.69.2l-12.11,1.06c-4.18.36-6.69.52-8.41.52-2.54,0-2.78-.38-2.79-.5-.16-1.83,9.94-8.51,24.89-9.82,1.05-.09,2.07-.14,3.03-.14,5.16,0,8.22,1.28,8.42,3.5.07.85-.17,1.38-.17,1.38l-.24.5.53-.15s2.32-.69,2.13-2.85c-.24-2.77-4.16-4.42-10.49-4.42h0Z" style="fill: #000ef4; stroke-width: 0px;"/>
          <path d="M271.84,60.78c5.67,0,8.4,2.26,8.6,4.56.18,2.05-1.51,3.32-2.17,3.38,1.42-4.34-1.88-6.15-6.8-6.15-2.91,0-6.4.63-9.82,1.76-10.26,3.31-18.35,10.15-17.97,14.49.15,1.68,2.12,2.33,5.11,2.33,9.79,0,30.47-7.02,33.42-8.07,1.47-.52,3.64-1.35,3.64-1.35,0,0,.07.83-.97,1.25l-2.49.99c-3.76,1.52-24.13,8.69-34.77,8.69-3.73,0-6.26-.88-6.47-3.2-.4-4.62,7.26-12.52,19.69-16.62,4.45-1.46,8.1-2.05,10.98-2.05M271.84,60.53v.25-.25h0c-3.18,0-6.9.69-11.06,2.06-12.41,4.09-20.29,12.03-19.86,16.88.2,2.27,2.46,3.43,6.71,3.43,10.84,0,31.51-7.36,34.87-8.71l2.48-.99c1.2-.48,1.13-1.46,1.12-1.5l-.03-.33-.31.12s-2.18.83-3.63,1.35c-.23.08-22.99,8.06-33.34,8.06-3.1,0-4.74-.71-4.86-2.1-.38-4.4,7.93-11.05,17.79-14.23,3.43-1.13,6.89-1.75,9.74-1.75,3.13,0,5.3.72,6.29,2.08.69.95.78,2.21.28,3.75l-.12.36.38-.03c.78-.07,2.59-1.43,2.39-3.65-.21-2.38-3.03-4.79-8.85-4.79h0Z" style="fill: #000ef4; stroke-width: 0px;"/>
        </g>
      </g>
      <g>
        <g>
          <g>
            <path d="M38.96,26.51v-6.96h12.55v-.28h-9.52v-6.96h9.52v-.28h-11.58v-1c0-3.29,2.68-5.97,5.96-5.97h5.62V1h7.52v4.07h11.52v6.97h-11.52v.28h9.45v6.96h-9.45v.28h12.48v1c0,3.29-2.68,5.96-5.96,5.96h-26.58Z" style="fill: #000ef4; stroke-width: 0px;"/>
            <path d="M58.03,2v4.07h11.52v4.97h-11.52v2.28h9.45v4.97h-9.45v2.28h12.48c0,2.74-2.22,4.96-4.96,4.96h-25.58v-4.96h12.55v-2.28h-9.52v-4.97h9.52v-2.28h-11.59c0-2.74,2.22-4.97,4.97-4.97h6.62V2h5.52M60.03,0h-9.52v4.07h-4.62c-3.84,0-6.97,3.12-6.97,6.97v2h2.07v5.52h-3.03v8.96h27.58c3.84,0,6.96-3.12,6.96-6.96v-2h-3.03v-5.52h2.07V4.07h-11.52V0h0Z" style="fill: #fff; stroke-width: 0px;"/>
          </g>
          <g>
            <path d="M59.3,59.41l-3.77-6.96h4.95v-3.59h-10.41v10.55h-7.38v-14.55c0-10.38,8.44-18.82,18.82-18.82h6.35v25.41c0,4.39-3.57,7.96-7.96,7.96h-.6ZM60.48,41.75v-.76h-10.41v.76h10.41ZM60.48,33.89v-.76h-10.41v.76h10.41Z" style="fill: #000ef4; stroke-width: 0px;"/>
            <path d="M66.86,27.03v24.41c0,3.85-3.12,6.96-6.96,6.96l-2.69-4.97h4.27v-5.59h-12.41v10.55h-5.38v-13.55c0-9.84,7.98-17.82,17.82-17.82h5.35M49.07,34.89h12.41v-2.76h-12.41v2.76M49.07,42.76h12.41v-2.76h-12.41v2.76M68.86,25.03h-7.35c-10.93,0-19.82,8.89-19.82,19.82v15.55h9.38v-10.55h8.41v1.59h-5.63l1.6,2.95,2.69,4.97.57,1.05h1.19c4.94,0,8.96-4.02,8.96-8.96v-26.41h0Z" style="fill: #fff; stroke-width: 0px;"/>
          </g>
          <g>
            <rect x="36.83" y="10.65" width="5.79" height="10.14" style="fill: #000ef4; stroke-width: 0px;"/>
            <path d="M41.62,11.65v8.14h-3.79v-8.14h3.79M43.62,9.65h-7.79v12.14h7.79v-12.14h0Z" style="fill: #fff; stroke-width: 0px;"/>
          </g>
          <g>
            <path d="M31.03,59.41V24.37l-.26.49h-2.72l-3.67-6.97h2.16l3.79-7.17h.71v-3.55c0-3.4,2.77-6.17,6.17-6.17h1v52.24c0,3.4-2.77,6.17-6.17,6.17h-1Z" style="fill: #000ef4; stroke-width: 0px;"/>
            <path d="M37.21,2v51.24c0,2.86-2.32,5.17-5.17,5.17V20.34l-1.86,3.52h-1.52l-2.62-4.97h1.1l3.79-7.17h1.1v-4.55c0-2.86,2.32-5.17,5.17-5.17M39.21,0h-2c-3.95,0-7.17,3.22-7.17,7.17v2.55h-.31l-.56,1.06-3.23,6.11h-3.21l1.55,2.93,2.62,4.97.56,1.07h2.59v34.55h2c3.95,0,7.17-3.22,7.17-7.17V0h0Z" style="fill: #fff; stroke-width: 0px;"/>
          </g>
          <g>
            <path d="M119.5,59.41l-2.16-4.09-2.16,4.09h-4.24l-.12-.23v.23h-6.96V19.44c0-9.71,7.9-17.62,17.62-17.62h4.66v13.64c0,5.67-4.62,10.29-10.29,10.29h-1.1l-3.91-7.24h8.06v-9.72h-8.07v20.41h15.65v7.1h-.07v.08l-5.45,10.31,2.92,5.62h3.15v1c0,3.37-2.74,6.1-6.1,6.1h-1.43ZM110.88,52.31l2.64-5-2.7-5.12v10.12h.05ZM115.95,37.27l.99,1.89,1.51-2.85h-7.62v.96h5.12Z" style="fill: #000ef4; stroke-width: 0px;"/>
            <path d="M125.14,2.83v12.64c0,5.13-4.16,9.29-9.29,9.29h-.5l-2.83-5.24h7.38V7.79h-10.07v22.41h15.65v5.1h-.07v.83l-5.58,10.55,3.45,6.62h2.76c0,2.82-2.28,5.1-5.1,5.1h-.83l-2.76-5.24-2.76,5.24h-3.03l-1.72-3.24v3.24h-4.96V19.44c0-9.18,7.44-16.62,16.62-16.62h3.66M109.83,53.31h1.65l3.17-6-4.76-9.03h5.45l1.59,3.03,3.17-6h-10.28v18M127.14.83h-5.66c-10.27,0-18.62,8.35-18.62,18.62v40.97h12.93l.56-1.07.99-1.88.99,1.88.56,1.07h2.04c3.92,0,7.1-3.19,7.1-7.1v-2h-3.55l-2.4-4.61,4.97-9.39h.43v-9.1h-15.65v-5.75l1.76,3.26.57,1.05h1.7c6.22,0,11.29-5.06,11.29-11.29V.83h0ZM111.83,9.79h6.07v7.72h-6.07v-7.72h0ZM111.83,48.38v-2.15l.57,1.07-.57,1.07h0Z" style="fill: #fff; stroke-width: 0px;"/>
          </g>
          <g>
            <path d="M90.48,59.41v-11.38h-6.62v-1c0-3.29,2.68-5.97,5.97-5.97h.65v-3.65h-8v-1c0-3.21,2.61-5.83,5.83-5.83h.85l-4-7.45h-2.68v-1c0-3.21,2.61-5.83,5.83-5.83h2.17v-2.62h-6.69v-1c0-3.29,2.68-5.96,5.97-5.96h.72V1.28h7.24v5.45h6.62v6.96h-6.62v2.62h7.93v6.83h-2.95l-3.97,7.45h6.92v6.83h-7.93v3.65h6.55v6.97h-6.55v11.38h-7.24ZM93.84,25.21l1.09-2.08h-2.2l1.1,2.08Z" style="fill: #000ef4; stroke-width: 0px;"/>
            <path d="M96.73,2.28v5.45h6.62v4.97h-6.62v4.62h7.93v4.83h-2.55l-5.03,9.45h7.59v4.83h-7.93v5.65h6.55v4.97h-6.55v11.38h-5.24v-11.38h-6.62c0-2.74,2.22-4.97,4.97-4.97h1.65v-5.65h-8c0-2.67,2.16-4.83,4.83-4.83h3.31l4.96-9.45h-5.52l2.28,4.28-2.62,4.97-4.97-9.24h-2.28c0-2.67,2.16-4.83,4.83-4.83h3.17v-4.62h-6.69c0-2.74,2.22-4.97,4.97-4.97h1.72V2.28h5.24M98.73.28h-9.24v5.45c-3.71.15-6.69,3.21-6.69,6.96v2h6.69v.62h-1.17c-3.76,0-6.83,3.06-6.83,6.83v2h3.08l2.95,5.49c-3.39.39-6.03,3.29-6.03,6.78v2h8v1.66c-3.68.18-6.62,3.23-6.62,6.96v2h6.62v11.38h9.24v-11.38h6.55v-8.97h-6.55v-1.65h7.93v-8.83h-6.25l2.9-5.45h3.35v-8.83h-7.93v-.62h6.62V5.72h-6.62V.28h0Z" style="fill: #fff; stroke-width: 0px;"/>
          </g>
          <g>
            <path d="M139.59,13.41v-1c0-3.59,2.92-6.52,6.52-6.52h19.1l-3.95,7.52h-21.67Z" style="fill: #000ef4; stroke-width: 0px;"/>
            <path d="M163.56,6.9l-2.9,5.52h-20.07c0-3.05,2.47-5.52,5.52-5.52h17.45M166.87,4.9h-20.76c-4.15,0-7.52,3.37-7.52,7.52v2h23.28l.56-1.07,2.9-5.52,1.54-2.93h0Z" style="fill: #fff; stroke-width: 0px;"/>
          </g>
          <g>
            <path d="M139.59,27.07v-1c0-3.59,2.92-6.52,6.52-6.52h18.55l-3.95,7.52h-21.12Z" style="fill: #000ef4; stroke-width: 0px;"/>
            <path d="M163,20.55l-2.9,5.52h-19.52c0-3.05,2.47-5.52,5.52-5.52h16.9M166.31,18.55h-20.2c-4.14,0-7.52,3.37-7.52,7.52v2h22.73l.56-1.07,2.9-5.52,1.54-2.93h0Z" style="fill: #fff; stroke-width: 0px;"/>
          </g>
          <g>
            <polygon points="146.2 55.34 142.09 47.69 159.78 47.69 172.28 24.16 172.28 5.9 179.93 5.9 179.93 26.04 164.36 55.34 146.2 55.34" style="fill: #000ef4; stroke-width: 0px;"/>
            <path d="M178.93,6.9v18.9l-15.17,28.55h-16.96l-3.03-5.65h16.62l12.9-24.27V6.9h5.65M180.93,4.9h-9.65v19.02l-12.1,22.77h-18.76l1.58,2.95,3.03,5.65.57,1.05h19.36l.56-1.06,15.17-28.55.23-.44V4.9h0Z" style="fill: #fff; stroke-width: 0px;"/>
          </g>
          <g>
            <path d="M224.61,55.34l-9.33-17.56-9.33,17.56h-9.96l-4.08-7.79h9.32l17.98-34h-24.99v-1c0-3.67,2.99-6.65,6.66-6.65h31.38l-12.53,23.62,9.6,18.03h7.16v1c0,3.75-3.05,6.79-6.79,6.79h-5.08Z" style="fill: #000ef4; stroke-width: 0px;"/>
            <path d="M230.6,6.9l-12,22.62,10.14,19.03h6.76c0,3.2-2.59,5.79-5.79,5.79h-4.48l-9.93-18.69-9.93,18.69h-8.76l-3.03-5.79h8.27l19.03-36h-25.65c0-3.12,2.53-5.66,5.65-5.66h29.72M233.92,4.9h-33.05c-4.22,0-7.65,3.43-7.65,7.66v2h24.33l-16.92,32h-10.37l1.53,2.93,3.03,5.79.56,1.07h11.17l.56-1.06,8.16-15.36,8.16,15.36.56,1.06h5.68c4.3,0,7.79-3.5,7.79-7.79v-2h-7.56l-9.07-17.03,11.5-21.68,1.56-2.94h0Z" style="fill: #fff; stroke-width: 0px;"/>
          </g>
          <g>
            <path d="M253.39,13.55v-1c0-3.67,2.99-6.65,6.66-6.65h26.79v1c0,3.67-2.99,6.65-6.66,6.65h-26.79Z" style="fill: #000ef4; stroke-width: 0px;"/>
            <path d="M285.84,6.9c0,3.12-2.53,5.66-5.66,5.66h-25.79c0-3.12,2.53-5.66,5.66-5.66h25.79M287.84,4.9h-27.79c-4.22,0-7.66,3.43-7.66,7.66v2h27.79c4.22,0,7.66-3.43,7.66-7.66v-2h0Z" style="fill: #fff; stroke-width: 0px;"/>
          </g>
          <g>
            <path d="M254,55.34l-4.11-7.66h8.17l10.38-19.45h-19.12v-1c0-3.67,2.98-6.65,6.65-6.65h34.79v1c0,3.67-2.99,6.65-6.65,6.65h-8.41l.78,1.48-13.63,25.62h-8.85Z" style="fill: #000ef4; stroke-width: 0px;"/>
            <path d="M289.77,21.58c0,3.12-2.53,5.65-5.65,5.65h-10.07l1.31,2.48-13.1,24.62h-7.66l-3.03-5.65h7.1l11.45-21.45h-19.79c0-3.12,2.53-5.65,5.65-5.65h33.79M291.77,19.58h-35.79c-4.22,0-7.65,3.43-7.65,7.65v2h18.46l-9.31,17.45h-9.25l1.58,2.95,3.03,5.65.57,1.05h10.05l.56-1.06,13.1-24.62.5-.94-.26-.49h6.75c4.22,0,7.65-3.43,7.65-7.65v-2h0Z" style="fill: #fff; stroke-width: 0px;"/>
          </g>
          <g>
            <path d="M301.7,54.79l15.7-29.46v-15.13c0-3.75,3.05-6.79,6.79-6.79h1v23.8l-10.58,19.92h21.36l-8.41-15.79h8.82l12.51,23.45h-47.19Z" style="fill: #000ef4; stroke-width: 0px;"/>
            <path d="M324.19,4.41v22.55l-11.24,21.17h24.69l-8.41-15.79h6.55l11.45,21.45h-43.86l15.03-28.2v-15.38c0-3.2,2.59-5.79,5.79-5.79M326.19,2.41h-2c-4.3,0-7.79,3.5-7.79,7.79v14.88l-14.8,27.76-1.57,2.94h50.53l-1.57-2.94-11.45-21.45-.56-1.06h-11.08l1.57,2.94,6.85,12.85h-18.03l9.68-18.23.23-.44V2.41h0Z" style="fill: #fff; stroke-width: 0px;"/>
          </g>
          <g>
            <path d="M358.99,14.86v-1c0-3.37,2.74-6.1,6.1-6.1h1.55v-.24c0-3.59,2.92-6.52,6.52-6.52h1v6.76h7.66v7.1h-22.83Z" style="fill: #000ef4; stroke-width: 0px;"/>
            <path d="M373.16,2v6.76h7.66v5.1h-20.83c0-2.82,2.28-5.1,5.1-5.1h2.55v-1.24c0-3.05,2.47-5.52,5.52-5.52M375.16,0h-2c-3.89,0-7.1,2.97-7.48,6.76h-.59c-3.92,0-7.1,3.19-7.1,7.1v2h24.83V6.76h-7.66V0h0Z" style="fill: #fff; stroke-width: 0px;"/>
          </g>
          <g>
            <polygon points="359.56 13.9 367.35 13.9 370.98 20.76 367.09 27.97 359.56 13.9" style="fill: #000ef4; stroke-width: 0px;"/>
            <path d="M366.75,14.9l3.1,5.86-2.76,5.1-5.86-10.96h5.52M367.95,12.9h-10.06l1.57,2.94,5.86,10.96,1.75,3.28,1.77-3.27,2.76-5.1.51-.94-.5-.95-3.1-5.86-.56-1.06h0Z" style="fill: #fff; stroke-width: 0px;"/>
          </g>
          <g>
            <path d="M358.37,32.24v-1c0-3.37,2.74-6.1,6.1-6.1h3.19l5.93-11.24h7.72l-6,11.24h7.12v7.1h-24.07Z" style="fill: #000ef4; stroke-width: 0px;"/>
            <path d="M379.64,14.9l-6,11.24h7.79v5.1h-22.07c0-2.82,2.28-5.1,5.1-5.1h3.79l5.93-11.24h5.45M382.98,12.9h-9.99l-.56,1.07-5.37,10.17h-2.59c-3.92,0-7.1,3.19-7.1,7.1v2h26.07v-9.1h-6.46l4.43-8.3,1.57-2.94h0Z" style="fill: #fff; stroke-width: 0px;"/>
          </g>
          <g>
            <path d="M381.19,59.41V20.89c0-10.36,8.43-18.79,18.79-18.79h3.95l-9.84,18.45,8.42,15.89v9.97c0,5.3-4.32,9.62-9.62,9.62h-.6l-3.71-7.05v4.05c0,3.52-2.86,6.38-6.38,6.38h-1ZM395.13,48.65v-10.68l-6.55-12.36v23.04h6.55ZM388.57,15.5l3.27-6.15h-3.27v6.15Z" style="fill: #000ef4; stroke-width: 0px;"/>
            <path d="M402.26,3.1l-9.31,17.45,8.55,16.14v9.72c0,4.76-3.86,8.62-8.62,8.62l-2.83-5.38h6.07v-11.93l-8.55-16.14v31.45c0,2.97-2.41,5.38-5.38,5.38V20.89c0-9.82,7.96-17.79,17.79-17.79h2.28M387.57,19.52l5.93-11.17h-5.93v11.17M405.6,1.1h-5.62c-10.91,0-19.79,8.88-19.79,19.79v39.52h2c4.07,0,7.38-3.31,7.38-7.38l1.54,2.93.56,1.07h1.21c5.86,0,10.62-4.76,10.62-10.62v-10.22l-.23-.44-8.05-15.2,8.81-16.51,1.57-2.94h0ZM389.57,10.34h.6l-.6,1.14v-1.14h0ZM389.57,47.65v-18.02l4.55,8.59v9.43h-4.55Z" style="fill: #fff; stroke-width: 0px;"/>
          </g>
          <g>
            <path d="M360.44,59.41v-6.52c0-10.44,8.49-18.93,18.93-18.93h1v6.52c0,10.44-8.49,18.93-18.93,18.93h-1ZM372.99,52.17v-10.96h-5.17v10.96h5.17Z" style="fill: #000ef4; stroke-width: 0px;"/>
            <path d="M379.37,34.96v5.52c0,9.9-8.03,17.93-17.93,17.93v-5.52c0-9.9,8.03-17.93,17.93-17.93M366.82,53.17h7.17v-12.96h-7.17v12.96M381.37,32.96h-2c-10.99,0-19.93,8.94-19.93,19.93v7.52h2c10.99,0,19.93-8.94,19.93-19.93v-7.52h0ZM368.82,42.2h3.17v8.96h-3.17v-8.96h0Z" style="fill: #fff; stroke-width: 0px;"/>
          </g>
        </g>
        <path d="M0,57.1c133.24-4.89,278.13-12.4,410.97-14.07,0,0,.01.3.01.3C278.68,50.44,132.35,53.76,0,57.1h0Z" style="fill: #e8f506; stroke-width: 0px;"/>
        <g>
          <path d="M57.78,2.25v4.07h11.52v4.47h-11.52v2.78h9.45v4.47h-9.45v2.78h12.48c-.13,2.48-2.19,4.46-4.71,4.46h-25.33v-4.46h12.55v-2.78h-9.52v-4.47h9.52v-2.78h-11.58c.13-2.48,2.19-4.47,4.71-4.47h6.87V2.25h5.02M36.96,2.26v50.98c0,2.63-2.07,4.79-4.67,4.92V19.34l-.47.89-1.79,3.38h-1.21l-2.36-4.47h.84l.07-.13,3.72-7.04h1.2v-4.8c0-2.63,2.07-4.79,4.67-4.92M41.37,11.9v7.64h-3.29v-7.64h3.29M66.61,27.28v24.16c0,3.65-2.93,6.63-6.57,6.71l-2.42-4.46h4.1v-6.09h-12.91v10.55h-4.88v-13.3c0-4.7,1.86-8.98,4.88-12.14v2.43h12.91v-3.26h-12.06c3.13-2.86,7.29-4.6,11.84-4.6h5.1M48.82,43.01h12.91v-3.26h-12.91v3.26M58.03,2h-5.52v4.07h-6.62c-2.74,0-4.97,2.22-4.97,4.97h11.59v2.28h-9.52v4.97h9.52v2.28h-12.55v4.96h25.58c2.74,0,4.96-2.22,4.96-4.96h-12.48v-2.28h9.45v-4.97h-9.45v-2.28h11.52v-4.97h-11.52V2h0ZM37.21,2c-2.86,0-5.17,2.32-5.17,5.17v4.55h-1.1l-3.79,7.17h-1.1l2.62,4.97h1.52l1.86-3.52v38.07c2.86,0,5.17-2.32,5.17-5.17V2h0ZM41.62,11.65h-3.79v8.14h3.79v-8.14h0ZM66.86,27.03h-5.35c-9.84,0-17.82,7.98-17.82,17.82v13.55h5.38v-10.55h12.41v5.59h-4.27l2.69,4.97c3.85,0,6.96-3.12,6.96-6.96v-24.41h0ZM49.07,34.89v-2.76h12.41v2.76h-12.41ZM49.07,42.76v-2.76h12.41v2.76h-12.41Z" style="fill: #000ef4; stroke-width: 0px;"/>
          <path d="M96.48,2.53v5.45h6.62v4.47h-6.62v5.12h7.93v4.33h-2.45l-.07.13-5.03,9.45-.2.37h7.75v4.33h-7.93v6.16h6.55v4.47h-6.55v11.38h-4.74v-11.38h-6.61c.13-2.48,2.19-4.47,4.71-4.47h1.9v-6.16h-7.99c.13-2.41,2.13-4.33,4.57-4.33h3.46l.07-.13,4.96-9.45.19-.37h-6.35l.2.37,2.21,4.16-2.34,4.43-4.74-8.83-.07-.13h-2.17c.13-2.41,2.13-4.33,4.57-4.33h3.42v-5.12h-6.68c.13-2.48,2.19-4.47,4.71-4.47h1.97V2.53h4.74M124.89,3.08v12.39c0,4.98-4.05,9.04-9.04,9.04h-.35l-2.56-4.74h7.21V7.54h-9.89c2.93-2.77,6.88-4.47,11.22-4.47h3.41M109.58,8.22v22.23h15.65v4.6h-.07v1.02l-5.56,10.5-.06.12.06.12,3.45,6.62.07.13h2.65c-.13,2.56-2.25,4.6-4.85,4.6h-.68l-2.69-5.11-.22-.42-.22.42-2.69,5.11h-2.73l-1.65-3.11-.47-.88v3.99h-4.46V19.44c0-4.34,1.7-8.29,4.46-11.22M109.58,53.56h2.06l.07-.13,3.17-6,.06-.12-.06-.12-4.57-8.67h4.88l1.52,2.9.22.42.22-.42,3.17-6,.19-.37h-10.94v18.5M96.73,2.28h-5.24v5.45h-1.72c-2.74,0-4.97,2.22-4.97,4.97h6.69v4.62h-3.17c-2.67,0-4.83,2.16-4.83,4.83h2.28l4.97,9.24,2.62-4.97-2.28-4.28h5.52l-4.96,9.45h-3.31c-2.67,0-4.83,2.16-4.83,4.83h8v5.66h-1.65c-2.74,0-4.97,2.22-4.97,4.97h6.62v11.38h5.24v-11.38h6.55v-4.97h-6.55v-5.66h7.93v-4.83h-7.59l5.03-9.45h2.55v-4.83h-7.93v-4.62h6.62v-4.97h-6.62V2.28h0ZM125.14,2.83h-3.66c-9.18,0-16.62,7.44-16.62,16.62v38.97h4.96v-3.24l1.72,3.24h3.03l2.76-5.24,2.76,5.24h.83c2.82,0,5.1-2.28,5.1-5.1h0s-2.76,0-2.76,0l-3.45-6.62,5.58-10.55v-.83h.07v-5.1h-15.65V7.79h10.07v11.72h-7.38l2.83,5.24h.5c5.13,0,9.29-4.16,9.29-9.29V2.83h0ZM120.1,35.31l-3.17,6-1.59-3.03h-5.45l4.76,9.03-3.17,6h-1.65v-18h10.28Z" style="fill: #000ef4; stroke-width: 0px;"/>
          <path d="M178.68,7.15v18.58l-15.07,28.36h-16.66l-2.77-5.15h16.35l.07-.13,12.9-24.27.03-.06V7.15h5.15M163.14,7.15l-2.63,5.02h-19.66c.13-2.79,2.44-5.02,5.26-5.02h17.03M162.59,20.8l-2.63,5.02h-19.11c.13-2.79,2.44-5.02,5.26-5.02h16.48M178.93,6.9h-5.65v17.52l-12.9,24.27h-16.62l3.03,5.65h16.96l15.17-28.55V6.9h0ZM163.56,6.9h-17.45c-3.05,0-5.52,2.47-5.52,5.52h20.07l2.9-5.52h0ZM163,20.55h-16.9c-3.05,0-5.52,2.47-5.52,5.52h19.52l2.9-5.52h0Z" style="fill: #000ef4; stroke-width: 0px;"/>
          <path d="M230.18,7.15l-11.8,22.25-.06.12.06.12,10.14,19.03.07.13h6.65c-.13,2.94-2.56,5.29-5.54,5.29h-4.33l-9.86-18.56-.22-.42-.22.42-9.86,18.56h-8.46l-2.77-5.29h8.01l.07-.13,19.03-36,.19-.37h-25.81c.13-2.86,2.5-5.16,5.4-5.16h29.31M230.6,6.9h-29.72c-3.12,0-5.65,2.53-5.65,5.66h25.65l-19.03,36h-8.27l3.03,5.79h8.76l9.93-18.69,9.93,18.69h4.48c3.2,0,5.79-2.59,5.79-5.79h-6.76l-10.14-19.03,12-22.62h0Z" style="fill: #000ef4; stroke-width: 0px;"/>
          <path d="M285.58,7.15c-.13,2.86-2.5,5.16-5.4,5.16h-25.53c.13-2.86,2.5-5.16,5.4-5.16h25.53M289.52,21.83c-.13,2.86-2.5,5.15-5.4,5.15h-10.48l.19.37,1.25,2.37-12.97,24.37h-7.36l-2.77-5.15h6.83l.07-.13,11.45-21.45.2-.37h-19.95c.13-2.86,2.5-5.15,5.4-5.15h33.54M285.84,6.9h-25.79c-3.12,0-5.66,2.53-5.66,5.66h25.79c3.12,0,5.66-2.53,5.66-5.65h0ZM289.77,21.58h-33.79c-3.12,0-5.65,2.53-5.65,5.65h19.79l-11.45,21.45h-7.1l3.03,5.65h7.66l13.1-24.62-1.31-2.48h10.07c3.12,0,5.65-2.53,5.65-5.65h0Z" style="fill: #000ef4; stroke-width: 0px;"/>
          <path d="M323.94,4.67v22.23l-11.21,21.12-.19.37h25.52l-.2-.37-8.22-15.42h5.99l11.18,20.95h-43.03l14.84-27.84.03-.06v-15.44c0-2.97,2.35-5.41,5.29-5.54M324.19,4.41c-3.2,0-5.79,2.59-5.79,5.79v15.38l-15.03,28.2h43.86l-11.45-21.45h-6.55l8.41,15.79h-24.69l11.24-21.17V4.41h0Z" style="fill: #000ef4; stroke-width: 0px;"/>
          <path d="M372.91,2.26v6.75h7.66v4.6h-20.32c.13-2.56,2.25-4.6,4.85-4.6h2.8v-1.49c0-2.82,2.23-5.13,5.02-5.26M401.85,3.35l-9.11,17.08-.06.12.06.12,8.52,16.08v9.66c0,4.57-3.67,8.29-8.22,8.37l-2.56-4.88h5.9v-12.24l-.03-.05-8.55-16.14-.47-.89v32.45c0,2.74-2.17,4.99-4.88,5.12V20.89c0-4.7,1.86-8.97,4.88-12.13v11.76l.47-.89,5.93-11.17.19-.37h-5.92c3.14-2.94,7.35-4.74,11.98-4.74h1.86M379.23,15.15l-5.8,10.87-.2.37h7.96v4.6h-21.56c.13-2.56,2.25-4.6,4.85-4.6h3.94l.07-.13,5.86-11.11h4.88M366.6,15.15l2.97,5.61-2.47,4.58-5.45-10.19h4.95M379.12,35.21v5.27c0,4.72-1.86,9.01-4.88,12.18v-12.71h-6.91c3.1-2.89,7.24-4.68,11.79-4.74M366.57,40.71v12.71h6.91c-3.1,2.89-7.24,4.68-11.79,4.74v-5.27c0-4.72,1.86-9.01,4.88-12.18M373.16,2c-3.05,0-5.52,2.47-5.52,5.52v1.24h-2.55c-2.82,0-5.1,2.28-5.1,5.1h20.83v-5.1h-7.66V2h0ZM402.26,3.1h-2.28c-9.82,0-17.79,7.96-17.79,17.79v37.52c2.97,0,5.38-2.41,5.38-5.38v-31.45l8.55,16.14v11.93h-6.07l2.83,5.38c4.76,0,8.62-3.86,8.62-8.62v-9.72l-8.55-16.14,9.31-17.45h0ZM393.5,8.34l-5.93,11.17v-11.17h5.93ZM379.64,14.9h-5.45l-5.93,11.24h-3.79c-2.82,0-5.1,2.28-5.1,5.1h22.07v-5.1h-7.79l6-11.24h0ZM366.75,14.9h-5.52l5.86,10.96,2.76-5.1-3.1-5.86h0ZM379.37,34.96c-9.9,0-17.93,8.03-17.93,17.93v5.52h0c9.9,0,17.93-8.03,17.93-17.93v-5.52h0ZM366.82,53.17v-12.96h7.17v12.96h-7.17Z" style="fill: #000ef4; stroke-width: 0px;"/>
        </g>
      </g>
    </g>
  </g>
</svg>