<?xml version="1.0" encoding="UTF-8" standalone="no"?>
<!-- Created with Inkscape (http://www.inkscape.org/) -->

<svg
   version="1.1"
   id="svg1"
   width="670.93713"
   height="273.41476"
   viewBox="0 0 670.93713 273.41478"
   sodipodi:docname="announce_misc.svg"
   inkscape:version="1.3.2 (091e20ef0f, 2023-11-25)"
   xmlns:inkscape="http://www.inkscape.org/namespaces/inkscape"
   xmlns:sodipodi="http://sodipodi.sourceforge.net/DTD/sodipodi-0.dtd"
   xmlns="http://www.w3.org/2000/svg"
   xmlns:svg="http://www.w3.org/2000/svg">
  <defs
     id="defs1" />
  <sodipodi:namedview
     id="namedview1"
     pagecolor="#ffffff"
     bordercolor="#000000"
     borderopacity="0.25"
     inkscape:showpageshadow="2"
     inkscape:pageopacity="0.0"
     inkscape:pagecheckerboard="0"
     inkscape:deskcolor="#d1d1d1"
     inkscape:zoom="1.4193122"
     inkscape:cx="523.14073"
     inkscape:cy="887.75396"
     inkscape:window-width="1920"
     inkscape:window-height="1024"
     inkscape:window-x="0"
     inkscape:window-y="0"
     inkscape:window-maximized="1"
     inkscape:current-layer="layer-MC0" />
  <g
     id="layer-MC0"
     inkscape:groupmode="layer"
     inkscape:label="レイヤー 1"
     transform="translate(-392.79269,-424.40974)">
    <path
       id="path81"
       d="m 851.15883,545.62372 h 2.6875 v -3.84375 h -2.6875 z m 2.6875,4.875 v -3.35938 h -2.6875 v 4.0625 c 1.39454,-0.35156 2.28907,-0.58594 2.6875,-0.70312 z m 7.64063,-8.95313 c 0.45703,-1.23828 0.81641,-2.53906 1.07812,-3.90625 h -3.5 c 0.38282,1.28125 0.72657,2.58594 1.03125,3.90625 z m -2.59375,8.625 v 2.59375 h 3.98437 v -2.59375 z m 0,-1.48437 h 3.98437 v -2.42188 h -3.98437 z m -5.04688,-12.04688 h -2.6875 v 3.625 h 2.6875 z m 11.96875,-2.78125 h 1.84375 c 0,2.74219 0.0664,5.30469 0.20313,7.6875 h 4.20312 v 1.59375 h -4.07812 c 0.13281,1.76172 0.32031,3.50781 0.5625,5.23438 0.63281,-1.17579 1.24219,-2.67579 1.82812,-4.5 l 1.5625,0.70312 c -0.83593,2.58594 -1.8125,4.69531 -2.9375,6.32813 0.44532,2.16796 0.83204,3.26562 1.15625,3.29687 0.35157,0 0.65625,-1.51953 0.90625,-4.5625 l 1.51563,0.57813 c -0.27344,4.08593 -1.00781,6.125 -2.20313,6.125 -1.10546,0 -2.03906,-1.21875 -2.79687,-3.65625 -1.15625,1.28125 -2.66797,2.48828 -4.53125,3.625 l -1.0625,-1.3125 c 0.23828,-0.125 0.57812,-0.33985 1.01562,-0.64063 h -4.10937 v 1.35938 h -1.85938 v -11.09375 h 7.65625 v 8.5 c 0.9375,-0.8125 1.72266,-1.62891 2.35938,-2.45313 -0.41797,-1.97656 -0.73438,-4.48828 -0.95313,-7.53125 h -10.10937 v -1.59375 h 2.34375 c -0.26172,-1.07031 -0.62109,-2.375 -1.07813,-3.90625 h -0.98437 v -1 h -0.70313 v 20.07813 h -1.71875 v -4.48438 c -2.09375,0.57422 -3.85156,0.99609 -5.26562,1.26563 l -0.20313,-1.6875 c 0.46875,-0.10157 0.83204,-0.17969 1.09375,-0.23438 v -14.9375 h -0.89062 v -1.67187 h 7.85937 v 1.03125 h 3.35938 v -2.29688 h 1.9375 v 2.29688 h 3.60937 v 1.64062 h -1.0625 c -0.27343,1.42969 -0.60156,2.73047 -0.98437,3.90625 h 2.70312 c -0.125,-2.09375 -0.1875,-4.65625 -0.1875,-7.6875 z m 4.64063,6.65625 c -0.9375,-1.84375 -1.78906,-3.36328 -2.54688,-4.5625 l 1.4375,-0.85937 c 0.95704,1.51171 1.81641,3.05859 2.57813,4.64062 z m 8.71484,-2.14062 h 13.01563 v -2.01563 h -13.01563 z m 0,1.39062 h -1.98437 v -5.04687 h 16.98437 v 5.04687 z m -0.98437,12.51563 h -2.01563 v -11.3125 h 19.01563 v 11.3125 h -6.25 c 3.23828,0.96093 5.875,1.95312 7.90625,2.98437 l -0.85938,1.53125 c -2.14843,-1.09375 -4.79687,-2.14844 -7.95312,-3.15625 l 0.57812,-1.35937 h -5.875 l 0.65625,1.1875 c -1.91797,1.20703 -4.64062,2.25 -8.17187,3.125 l -0.67188,-1.59375 c 3.21875,-0.80079 5.75781,-1.70704 7.625,-2.71875 z m 0,-3.32813 v 1.84375 h 14.98437 v -1.84375 z m 0,-3.25 v 1.875 h 14.98437 v -1.875 z m 0,-1.35937 h 14.98437 v -1.8125 h -14.98437 z m 38.76171,-0.60938 c -1.0937,-1.28906 -1.9492,-2.26953 -2.56249,-2.9375 h -5.53125 c -0.80469,1.65625 -1.45313,2.91797 -1.95313,3.78125 3.38281,-0.20703 6.73438,-0.48828 10.04687,-0.84375 z m -5.06249,6.98438 v 3.4375 h 10.07809 v 1.625 h -22.17184 v -1.625 h 10.07812 v -3.4375 h -8.3125 v -1.60938 h 8.3125 v -2.51562 h 2.01563 v 2.51562 h 8.14059 v 1.60938 z m 0,-14.98438 h 9.90629 v 5.85938 h -1.9219 v -4.28125 H 901.8854 v 4.28125 h -1.92188 v -5.85938 h 9.90625 v -2.28125 h 2.01563 z m -9.125,5.0625 v -1.54687 h 16.23439 v 1.54687 h -2.2656 c 1.5937,1.75 3.0703,3.48047 4.4375,5.1875 l -1.6407,0.875 c -0.1054,-0.11328 -0.3086,-0.36328 -0.6093,-0.75 -0.3047,-0.38281 -0.5469,-0.6875 -0.7344,-0.90625 -6.31252,0.71094 -12.02736,1.12109 -17.14064,1.23438 l -0.0937,-1.60938 c 0.76953,-0.0195 2.01953,-0.0625 3.75,-0.125 0.82031,-1.38281 1.53125,-2.6875 2.125,-3.90625 z m 25.24999,0.375 v 15.46875 h -1.8906 v -11.8125 c -0.5,1.07422 -1.0117,2.00781 -1.5313,2.79688 l -0.8281,-2.04688 c 2.0078,-3.21875 3.4063,-7.06641 4.1875,-11.54687 l 1.75,0.14062 c -0.3672,2.51172 -0.9297,4.84375 -1.6875,7 z m 4.1563,8.875 h -1.8282 v -15.20312 h 8.71876 v 15.20312 z m 0,-4.67187 v 2.98437 h 5.12496 v -2.98437 z m 0,-4.45313 v 2.95313 h 5.12496 v -2.95313 z m 0,-1.51562 h 5.12496 v -2.89063 h -5.12496 z m 8.70306,11.95312 v -15.8125 h 1.8125 v 15.8125 z m 4.2031,-16.8125 h 1.8906 v 18.57813 c 0,1.40625 -0.1211,2.28515 -0.3593,2.64062 -0.2422,0.35156 -0.8672,0.53125 -1.875,0.53125 -0.5547,0 -1.5625,-0.043 -3.0313,-0.125 l -0.078,-1.76562 c 1.3125,0.082 2.1719,0.125 2.5781,0.125 0.4141,0 0.6641,-0.0625 0.75,-0.1875 0.082,-0.125 0.125,-0.55079 0.125,-1.28125 z m -15.82806,20.9375 c 1.5195,-1.47656 2.6797,-3.08203 3.4844,-4.8125 l 1.5312,0.78125 c -0.9375,2.05469 -2.1484,3.75391 -3.625,5.10938 z m 5.9844,-3.79687 1.37496,-0.9375 c 1.3828,1.51171 2.5703,3.10546 3.5625,4.78125 l -1.4688,0.85937 c -0.9922,-1.67969 -2.1484,-3.24219 -3.46866,-4.70312 z m 28.46476,1.57812 c 2.0195,-0.21875 3.5938,-1.01562 4.7188,-2.39062 1.125,-1.375 1.6875,-3.20704 1.6875,-5.5 0,-2.13282 -0.711,-3.89454 -2.125,-5.28125 -1.4063,-1.39454 -3.211,-2.12891 -5.4063,-2.20313 -0.3555,3.26172 -0.7969,6.01563 -1.3281,8.26563 -0.5313,2.25 -1.1172,3.95312 -1.75,5.10937 -0.6367,1.14844 -1.2774,1.95313 -1.9219,2.42188 -0.6367,0.46093 -1.3281,0.6875 -2.0781,0.6875 -1.2188,0 -2.3399,-0.72657 -3.3594,-2.1875 -1.0117,-1.46875 -1.5156,-3.25782 -1.5156,-5.375 0,-3.15625 1.0781,-5.72266 3.2344,-7.70313 2.164,-1.98828 4.9765,-2.98437 8.4375,-2.98437 2.789,0 5.0976,0.87109 6.9218,2.60937 1.8203,1.74219 2.7344,3.95313 2.7344,6.64063 0,2.79296 -0.7109,5.05468 -2.125,6.78125 -1.4062,1.71875 -3.3203,2.67578 -5.7344,2.875 z m -3.0469,-15.26562 c -2.4922,0.30468 -4.4804,1.25 -5.9687,2.84375 -1.4805,1.59375 -2.2188,3.58593 -2.2188,5.96875 0,1.58593 0.3321,2.93359 1,4.04687 0.6758,1.10547 1.3516,1.65625 2.0313,1.65625 0.3008,0 0.6133,-0.11328 0.9375,-0.34375 0.3203,-0.22656 0.6875,-0.67187 1.0937,-1.32812 0.4063,-0.65625 0.7852,-1.49219 1.1407,-2.51563 0.3515,-1.01953 0.707,-2.42187 1.0625,-4.20312 0.3632,-1.78125 0.6718,-3.82032 0.9218,-6.125 z m 24.4024,11.60937 h 10.0781 v -2.54687 h -10.0781 z m 0,5.78125 v 1.07813 h -1.8907 v -11.01563 h 4.75 c 0.2891,-0.625 0.5469,-1.30078 0.7657,-2.03125 l 1.9375,0.29688 c -0.2422,0.71875 -0.4492,1.29687 -0.625,1.73437 h 7.0781 v 11.01563 h -1.9375 v -1.07813 z m -4.4219,-7.54687 c 0,-0.91407 -0.1641,-1.72657 -0.4844,-2.4375 -0.3125,-0.71875 -0.9336,-1.61719 -1.8594,-2.70313 1.125,-2.00781 2.0391,-4.125 2.75,-6.34375 h -3.4218 v 20.10938 h -1.7969 v -21.67188 h 7.0156 v 1.5625 c -0.625,2.08594 -1.5,4.15625 -2.625,6.21875 0.7891,0.99219 1.336,1.91797 1.6407,2.78125 0.3124,0.85547 0.4687,1.8125 0.4687,2.875 0,1.16797 -0.2617,2.02344 -0.7813,2.5625 -0.5234,0.54297 -1.3515,0.8125 -2.4843,0.8125 h -0.6875 l -0.2813,-1.625 h 0.6563 c 0.707,0 1.1953,-0.14844 1.4687,-0.45312 0.2813,-0.30079 0.4219,-0.86329 0.4219,-1.6875 z m 14.5,5.98437 v -2.70312 h -10.0781 v 2.70312 z m -5.5156,-16.89062 v 1.64062 h -4.0938 v 3.625 c 1.5821,-0.38281 2.9883,-0.78125 4.2188,-1.1875 l 0.1718,1.60938 c -2.7109,0.92968 -5.3515,1.57031 -7.9218,1.92187 l -0.1406,-1.64062 c 0.6328,-0.082 1.2421,-0.17969 1.8281,-0.29688 v -8.125 h 1.8437 v 2.45313 z m 1,-2.45313 h 1.8594 v 2.875 c 1.5,-0.51953 3.0624,-1.26562 4.6874,-2.23437 l 0.6407,1.40625 c -1.75,1.03125 -3.5274,1.83984 -5.3281,2.42187 v 2.70313 c 0,0.34375 0.024,0.55468 0.078,0.625 0.051,0.0625 0.2265,0.10546 0.5312,0.125 0.1953,0.0234 0.5352,0.0312 1.0156,0.0312 0.4453,0 0.7813,-0.008 1,-0.0312 0.4375,-0.0312 0.7032,-0.19141 0.7969,-0.48438 0.094,-0.30078 0.1797,-1.28906 0.2656,-2.96875 l 1.7657,0.17188 c -0.055,0.82421 -0.1016,1.46484 -0.1407,1.92187 -0.043,0.44922 -0.1054,0.88281 -0.1875,1.29688 -0.086,0.40625 -0.164,0.69921 -0.2343,0.875 -0.062,0.16796 -0.1836,0.32031 -0.3594,0.45312 -0.1797,0.13672 -0.3555,0.21875 -0.5313,0.25 -0.1797,0.0312 -0.4336,0.0586 -0.7656,0.0781 -0.7109,0.0312 -1.2734,0.0469 -1.6875,0.0469 -0.4609,0 -1.0234,-0.0156 -1.6875,-0.0469 -0.7422,-0.0508 -1.2148,-0.17188 -1.4219,-0.35938 -0.1992,-0.1875 -0.2968,-0.61328 -0.2968,-1.28125 z m 12.85535,3.20313 v 2.59375 h 6.375 v 1.5625 h -6.375 v 3.48437 h 6.375 v 1.5625 h -6.375 v 3.89063 c 2.0391,-0.35157 4.3047,-0.83204 6.7969,-1.4375 l 0.1719,1.60937 c -2.668,0.65625 -4.9922,1.15234 -6.9688,1.48438 v 4.20312 h -1.9531 v -3.90625 c -0.1797,0.043 -0.4609,0.0937 -0.8437,0.15625 -0.3868,0.0547 -0.68355,0.0859 -0.89065,0.0937 l -0.1249,-1.625 c 0.35155,-0.0508 0.97265,-0.14453 1.85935,-0.28125 v -14.79683 c 2.7578,-0.46875 5.5781,-1.17968 8.4531,-2.14062 l 0.4688,1.65625 c -2.3868,0.82422 -4.711,1.45312 -6.9688,1.89062 z m 10.7344,-1.25 v 0.54687 c 0,3.33594 -1.1875,5.63672 -3.5625,6.90625 l -1.0781,-1.39062 c 1.0625,-0.63282 1.7968,-1.39454 2.2031,-2.28125 0.4141,-0.89454 0.625,-2.21875 0.625,-3.96875 v -1.45313 h 7.2812 v 6.34375 c 0,0.24219 0.023,0.375 0.078,0.40625 0.051,0.0312 0.2344,0.0469 0.5469,0.0469 0.7383,0 1.1797,-0.12891 1.3281,-0.39063 0.1446,-0.25781 0.2735,-1.14453 0.3907,-2.65625 l 1.6875,0.20313 c -0.055,0.84375 -0.1016,1.46875 -0.1406,1.875 -0.043,0.39843 -0.1328,0.80468 -0.2657,1.21875 -0.1367,0.40625 -0.2617,0.67187 -0.375,0.79687 -0.1172,0.125 -0.3554,0.25781 -0.7187,0.39063 -0.3672,0.125 -0.7188,0.19531 -1.0625,0.20312 -0.3438,0 -0.8711,0 -1.5781,0 -0.75,0 -1.2344,-0.0703 -1.4532,-0.21875 -0.2109,-0.15625 -0.3125,-0.5 -0.3125,-1.03125 v -5.54687 z m -2.6719,11.20312 1.4844,-1 c 0.9258,1.375 2.0508,2.625 3.375,3.75 1.4141,-1.1875 2.6016,-2.625 3.5625,-4.3125 h -9.5312 v -1.65625 h 11.5937 v 1.65625 c -1.0938,2.1875 -2.4805,4.01563 -4.1563,5.48438 1.6446,1.21093 3.5,2.25 5.5625,3.125 l -0.6718,1.60937 c -2.2735,-0.875 -4.3985,-2.06641 -6.375,-3.57812 -1.9375,1.375 -4.4532,2.5664 -7.5469,3.57812 l -0.7344,-1.67187 c 2.6758,-0.82032 4.9453,-1.86329 6.8125,-3.125 -1.3125,-1.15625 -2.4375,-2.44141 -3.375,-3.85938 z m 33.7617,7.3125 c -2,0.34375 -4.1093,0.51563 -6.3281,0.51563 -3.0742,0 -5.2969,-0.35938 -6.6719,-1.07813 -1.3672,-0.71875 -2.0468,-1.84766 -2.0468,-3.39062 0,-2.66407 2.5312,-4.71875 7.5937,-6.15625 -0.2422,-0.76954 -0.5586,-1.30469 -0.9531,-1.60938 -0.3984,-0.30078 -0.9024,-0.45312 -1.5156,-0.45312 -1.0118,0 -2.1524,0.49218 -3.4219,1.46875 -1.2735,0.96875 -2.5547,2.37109 -3.8438,4.20312 l -1.5312,-0.98437 c 2.0625,-2.875 3.75,-5.78125 5.0625,-8.71875 h -4.9219 v -1.60938 h 5.6094 c 0.3828,-0.9375 0.7578,-1.96094 1.125,-3.07812 l 1.8125,0.42187 c -0.336,0.89844 -0.668,1.78125 -1,2.65625 h 10.9375 v 1.60938 h -11.625 c -0.5547,1.26171 -1.168,2.5625 -1.8438,3.90625 l 0.031,0.0312 c 1.4571,-1.00781 2.7696,-1.51562 3.9375,-1.51562 1.9766,0 3.2969,1.07422 3.9532,3.21875 1.6953,-0.38281 3.6172,-0.70703 5.7656,-0.96875 l 0.1875,1.625 c -2.293,0.30469 -4.1563,0.625 -5.5938,0.96875 0.2071,1.26172 0.3125,2.89844 0.3125,4.90625 h -1.9375 c 0,-1.8125 -0.074,-3.28906 -0.2187,-4.4375 -4,1.16797 -6,2.62109 -6,4.35937 0,0.46094 0.082,0.85157 0.25,1.17188 0.1641,0.3125 0.4726,0.62109 0.9219,0.92187 0.457,0.29297 1.1562,0.51563 2.0937,0.67188 0.9453,0.14844 2.125,0.21875 3.5313,0.21875 1.8633,0 3.914,-0.1875 6.1562,-0.5625 z M 854.54946,566.3034 h 11.54687 v 1.6875 l -6.5,5.92188 v 0.0469 h 0.98438 c 1.86328,0 3.28906,0.42969 4.28125,1.28125 0.98828,0.85547 1.48437,2.10156 1.48437,3.73437 0,1.91797 -0.58984,3.39063 -1.76562,4.42188 -1.16797,1.03125 -2.84375,1.54687 -5.03125,1.54687 -1.89844,0 -3.57813,-0.4375 -5.04688,-1.3125 l 0.60938,-1.64062 c 1.48828,0.84375 2.96875,1.26562 4.4375,1.26562 1.5625,0 2.75,-0.35937 3.5625,-1.07812 0.8125,-0.72657 1.21875,-1.79688 1.21875,-3.20313 0,-1.19531 -0.40625,-2.08203 -1.21875,-2.65625 -0.8125,-0.58203 -2.10547,-0.875 -3.875,-0.875 h -2.26563 v -1.5625 l 6.4375,-5.84375 v -0.0469 h -8.85937 z m 29.69922,13.54688 h 10.07812 v -2.54688 h -10.07812 z m 0,5.78125 v 1.07812 h -1.89063 v -11.01562 h 4.75 c 0.28907,-0.625 0.54688,-1.30078 0.76563,-2.03125 l 1.9375,0.29687 c -0.24219,0.71875 -0.44922,1.29688 -0.625,1.73438 h 7.07812 v 11.01562 h -1.9375 v -1.07812 z m -4.42188,-7.54688 c 0,-0.91406 -0.16406,-1.72656 -0.48437,-2.4375 -0.3125,-0.71875 -0.9336,-1.61718 -1.85938,-2.70312 1.125,-2.00782 2.03907,-4.125 2.75,-6.34375 h -3.42187 v 20.10937 h -1.79688 v -21.67187 h 7.01563 v 1.5625 c -0.625,2.08593 -1.5,4.15625 -2.625,6.21875 0.78906,0.99218 1.33593,1.91797 1.64062,2.78125 0.3125,0.85547 0.46875,1.8125 0.46875,2.875 0,1.16797 -0.26172,2.02343 -0.78125,2.5625 -0.52343,0.54297 -1.35156,0.8125 -2.48437,0.8125 h -0.6875 l -0.28125,-1.625 h 0.65625 c 0.70703,0 1.19531,-0.14844 1.46875,-0.45313 0.28125,-0.30078 0.42187,-0.86328 0.42187,-1.6875 z m 14.5,5.98438 v -2.70313 h -10.07812 v 2.70313 z m -5.51562,-16.89063 v 1.64063 h -4.09375 v 3.625 c 1.58203,-0.38282 2.98828,-0.78125 4.21875,-1.1875 l 0.17187,1.60937 c -2.71093,0.92969 -5.35156,1.57031 -7.92187,1.92188 l -0.14063,-1.64063 c 0.63281,-0.082 1.24219,-0.17968 1.82813,-0.29687 v -8.125 h 1.84375 v 2.45312 z m 1,-2.45312 h 1.85937 v 2.875 c 1.5,-0.51953 3.0625,-1.26563 4.6875,-2.23438 l 0.64063,1.40625 c -1.75,1.03125 -3.52735,1.83985 -5.32813,2.42188 v 2.70312 c 0,0.34375 0.0234,0.55469 0.0781,0.625 0.0508,0.0625 0.22657,0.10547 0.53125,0.125 0.19532,0.0234 0.53516,0.0313 1.01563,0.0313 0.44531,0 0.78125,-0.008 1,-0.0313 0.4375,-0.0312 0.70312,-0.1914 0.79687,-0.48437 0.0937,-0.30078 0.17969,-1.28907 0.26563,-2.96875 l 1.76562,0.17187 c -0.0547,0.82422 -0.10156,1.46485 -0.14062,1.92188 -0.043,0.44922 -0.10547,0.88281 -0.1875,1.29687 -0.0859,0.40625 -0.16407,0.69922 -0.23438,0.875 -0.0625,0.16797 -0.18359,0.32032 -0.35937,0.45313 -0.17969,0.13672 -0.35547,0.21875 -0.53125,0.25 -0.17969,0.0312 -0.4336,0.0586 -0.76563,0.0781 -0.71094,0.0312 -1.27344,0.0469 -1.6875,0.0469 -0.46094,0 -1.02344,-0.0156 -1.6875,-0.0469 -0.74218,-0.0508 -1.21484,-0.17188 -1.42187,-0.35938 -0.19922,-0.18749 -0.29687,-0.61327 -0.29687,-1.28124 z m 15.21484,15.3125 h 11.70317 v -3.07813 h -11.70317 z m 7.6875,4.57812 c 0.70703,-0.92578 1.36328,-1.96875 1.96875,-3.125 h -7.57812 c 0.42578,0.90625 0.86718,1.94922 1.32812,3.125 z m -1.82812,-17.76562 c -1.08594,1.75 -2.5586,3.4375 -4.42188,5.0625 h 8.82817 c -1.86723,-1.625 -3.33598,-3.3125 -4.40629,-5.0625 z m -11.09375,19.4375 v -1.67188 h 6.57812 c -0.4375,-1.125 -0.89062,-2.16406 -1.35937,-3.125 h -1.89063 v -6.04687 h 15.51562 v 6.04687 h -1.8594 c -0.5742,1.17969 -1.1953,2.21875 -1.8593,3.125 h 7.0468 v 1.67188 z m 2.6875,-19.76563 v -1.64062 h 9.32812 c 0.57031,1.19922 1.3125,2.32422 2.21875,3.375 1.03127,-1.03907 1.96097,-2.15625 2.79687,-3.34375 l 1.4844,0.92187 c -0.8555,1.23047 -1.8985,2.46094 -3.125,3.6875 0.6445,0.625 1.3594,1.24219 2.1406,1.84375 1.1641,-1.16406 2.207,-2.39453 3.125,-3.6875 l 1.4688,0.9375 c -0.961,1.32422 -2.0274,2.57422 -3.2032,3.75 1.1446,0.77344 2.4219,1.50781 3.8282,2.20313 l -0.7188,1.65625 c -2.125,-1.03907 -4.1094,-2.31641 -5.9531,-3.82813 v 1.15625 h -9.98439 v -1.15625 c -1.84375,1.51172 -3.82813,2.78906 -5.95313,3.82813 l -0.71875,-1.65625 c 1.92578,-0.95703 3.65625,-1.99219 5.1875,-3.10938 -1.53125,-1.35156 -2.77734,-2.42578 -3.73437,-3.21875 l 1.28125,-1.26562 c 1.21875,0.99219 2.51562,2.10937 3.89062,3.35937 1.32031,-1.14453 2.42969,-2.41406 3.32813,-3.8125 z m 25.26564,6.03125 c 3.9883,-1.03125 6.9922,-1.54687 9.01556,-1.54687 5.0938,0 7.6406,2.125 7.6406,6.375 0,2.55468 -1.0859,4.48437 -3.25,5.79687 -2.1562,1.3125 -5.38666,1.96875 -9.68746,1.96875 l -0.094,-1.73437 c 3.7891,0 6.58596,-0.48438 8.39066,-1.45313 1.8007,-0.97656 2.7031,-2.4414 2.7031,-4.39062 0,-1.61328 -0.4805,-2.8125 -1.4375,-3.59375 -0.9492,-0.78125 -2.4219,-1.17188 -4.4219,-1.17188 -1.78116,0 -4.60546,0.4961 -8.46866,1.48438 z m 23.32416,-5.34375 c 6.6758,0 13.4727,-0.17187 20.3906,-0.51562 l 0.1094,1.76562 c -4.2422,0.38672 -7.4922,1.39063 -9.75,3.01563 -2.2617,1.625 -3.3906,3.62109 -3.3906,5.98437 0,1.9375 0.6445,3.46875 1.9375,4.59375 1.3008,1.125 3.0351,1.6875 5.2031,1.6875 0.9883,0 2.0352,-0.0937 3.1406,-0.28125 l 0.2344,1.78125 c -1.043,0.1875 -2.1953,0.28125 -3.4531,0.28125 -2.793,0 -5.0117,-0.71094 -6.6563,-2.125 -1.6484,-1.41406 -2.4687,-3.33594 -2.4687,-5.76562 0,-1.94532 0.6484,-3.69532 1.9531,-5.25 1.3008,-1.55078 3.1445,-2.77344 5.5313,-3.67188 v -0.0469 c -5.0118,0.19922 -9.2735,0.29688 -12.7813,0.29688 z m 31.3086,16.42188 h 11.6094 v -7.4375 h -11.6094 z m 13.6094,-9.09375 v 12.09375 h -2 v -1.35938 h -11.6094 v 1.35938 h -2.0156 v -9.14063 c -1.3985,1.91797 -2.9141,3.4961 -4.5469,4.73438 l -1.1094,-1.48438 c 3.8008,-2.92578 6.4883,-6.84375 8.0625,-11.75 h -7.2031 v -1.73437 h 7.6875 c 0.2812,-1.14453 0.5,-2.26953 0.6562,-3.375 l 1.9844,0.125 c -0.1249,0.9375 -0.3359,2.02343 -0.625,3.25 h 12.125 v 1.73437 h -12.6094 c -0.6367,2.05469 -1.4062,3.90235 -2.3124,5.54688 z m 4.35535,2.92187 h 10.7031 v -3.9375 h -9.4531 v -1.6875 h 9.4531 v -3.70312 c -2.7187,0.25 -5.5585,0.375 -8.5156,0.375 l -0.094,-1.70313 c 6.8946,0 13.0156,-0.69531 18.3594,-2.09375 l 0.4062,1.71875 c -2.5234,0.63672 -5.2343,1.13281 -8.1406,1.48438 v 3.92187 h 8.7031 v 1.6875 h -8.7031 v 3.9375 h 9.9531 v 1.73438 h -9.9531 v 4.17187 c 0,1.40625 -0.168,2.28516 -0.5,2.64063 -0.3359,0.35156 -1.1562,0.53125 -2.4687,0.53125 -0.9375,0 -2.3594,-0.043 -4.2656,-0.125 l -0.078,-1.71875 c 1.8007,0.082 3.1015,0.125 3.9062,0.125 0.6445,0 1.0351,-0.0742 1.1719,-0.21875 0.1445,-0.15625 0.2187,-0.56641 0.2187,-1.23438 v -4.17187 h -10.7031 z m 28.4649,-6.04687 v 15.46875 h -1.8907 v -11.8125 c -0.5,1.07422 -1.0117,2.00781 -1.5312,2.79687 l -0.8281,-2.04687 c 2.0078,-3.21875 3.4062,-7.06641 4.1875,-11.54688 l 1.75,0.14063 c -0.3672,2.51172 -0.9297,4.84375 -1.6875,7 z m 4.1562,8.875 h -1.8281 v -15.20313 h 8.7187 v 15.20313 z m 0,-4.67188 v 2.98438 h 5.125 v -2.98438 z m 0,-4.45312 v 2.95312 h 5.125 v -2.95312 z m 0,-1.51563 h 5.125 v -2.89062 h -5.125 z m 8.7031,11.95313 v -15.8125 h 1.8125 v 15.8125 z m 4.2032,-16.8125 h 1.8906 v 18.57812 c 0,1.40625 -0.1211,2.28516 -0.3594,2.64063 -0.2422,0.35156 -0.8672,0.53125 -1.875,0.53125 -0.5547,0 -1.5625,-0.043 -3.0312,-0.125 l -0.078,-1.76563 c 1.3125,0.082 2.1718,0.125 2.5781,0.125 0.4141,0 0.6641,-0.0625 0.75,-0.1875 0.082,-0.125 0.1249,-0.55078 0.1249,-1.28125 z m -15.8282,20.9375 c 1.5196,-1.47657 2.6797,-3.08203 3.4844,-4.8125 l 1.5313,0.78125 c -0.9375,2.05468 -2.1485,3.7539 -3.625,5.10937 z m 5.9844,-3.79688 1.375,-0.9375 c 1.3828,1.51172 2.5703,3.10547 3.5625,4.78125 l -1.4687,0.85938 c -0.9922,-1.67969 -2.1485,-3.24219 -3.4688,-4.70313 z m 0,0"
       style="fill:#181817;fill-opacity:1;fill-rule:nonzero;stroke:none;stroke-width:1.33333"
       aria-label="職員室側の階段を&#10;３階登って右手側" />
    <g
       id="g180"
       transform="matrix(0.67534861,0.50506533,-0.99221887,0.73867726,1224.0818,-267.84111)">
      <path
         style="fill:#b1f5ff;fill-opacity:1;stroke:none;stroke-width:3.77953;stroke-linecap:square;stroke-linejoin:round;paint-order:stroke fill markers"
         d="m 313.27616,952.89617 v -200 h 200.00003 v 200 h -50 l -3e-5,-150 h -100 v 150 h -50"
         id="path180" />
      <path
         style="fill:#12bbff;fill-opacity:1;stroke:none;stroke-width:3.77953;stroke-linecap:square;stroke-linejoin:round;paint-order:stroke fill markers"
         d="m 276.94804,974.35083 v -200 h 200.00003 v 200 h -50 l -3e-5,-150 h -100 v 150 h -50"
         id="path180-2" />
      <path
         style="fill:#1291d8;fill-opacity:1;stroke:none;stroke-width:3.77953;stroke-linecap:square;stroke-linejoin:round;paint-order:stroke fill markers"
         d="M 239.04362,1000.512 V 800.51218 H 439.04365 V 1000.512 h -50 l -3e-5,-149.99982 h -100 V 1000.512 h -50"
         id="path180-2-3" />
    </g>
    <path
       sodipodi:type="star"
       style="fill:#ffe680;fill-opacity:1;stroke:none;stroke-width:3.77953;stroke-linecap:square;stroke-linejoin:round;paint-order:stroke fill markers"
       id="path181"
       inkscape:flatsided="false"
       sodipodi:sides="5"
       sodipodi:cx="435.54099"
       sodipodi:cy="845.47021"
       sodipodi:r1="19.922915"
       sodipodi:r2="9.9614573"
       sodipodi:arg1="0.64212926"
       sodipodi:arg2="1.2704478"
       inkscape:rounded="0"
       inkscape:randomized="0"
       d="m 451.4957,857.40209 -13.00759,-2.41636 -9.36473,9.34547 -1.72148,-13.11764 -11.78193,-6.01849 11.94366,-5.69079 2.0831,-13.0651 9.10306,9.60054 13.06936,-2.05619 -6.31766,11.62426 z"
       transform="matrix(0.33014656,0.42714017,-0.51799058,0.35146414,953.62975,92.68349)"
       inkscape:transform-center-x="0.28221208"
       inkscape:transform-center-y="0.90107007" />
    <path
       style="fill:none;fill-opacity:1;stroke:#ffe680;stroke-width:5;stroke-linecap:round;stroke-linejoin:round;stroke-dasharray:none;stroke-opacity:1;paint-order:normal"
       d="M 659.19431,576.77407 768.70647,695.27966 H 1061.2299"
       id="path182"
       sodipodi:nodetypes="ccc" />
    <path
       d="m 809.31773,697.77976 c -4.40038,0 -8.22366,-0.8657 -11.46984,-2.597 -3.24618,-1.8034 -5.77099,-4.3282 -7.57442,-7.5744 -1.73129,-3.24617 -2.59694,-7.06945 -2.59694,-11.46983 h 5.4103 c 0,5.26603 1.44275,9.37787 4.32824,12.33553 2.88549,2.9576 6.85305,4.4364 11.90266,4.4364 5.04961,0 9.01717,-1.4788 11.90266,-4.4364 2.88549,-3.0298 4.32824,-7.14164 4.32824,-12.33553 v -8.11545 c 0,-5.12175 -1.44275,-9.08931 -4.32824,-11.90266 -2.81336,-2.88549 -6.78091,-4.32824 -11.90266,-4.32824 h -5.51851 v -4.86927 l 20.45094,-24.34635 h -33.86848 v -4.86927 h 39.38698 v 5.4103 l -20.77555,24.67097 v -0.86565 c 6.78091,0 12.11907,1.91164 16.01449,5.73492 3.96755,3.75114 5.95133,8.87289 5.95133,15.36525 v 8.11545 c 0,4.40038 -0.90172,8.22366 -2.70515,11.46983 -1.7313,3.2462 -4.22004,5.771 -7.46622,7.5744 -3.24618,1.7313 -7.06946,2.597 -11.46983,2.597 z m 32.6223,-1.0821 v -3.7863 h 22.39865 v -70.3348 l -21.533,15.79808 v -6.05954 l 19.8017,-14.60781 h 7.1416 v 75.20407 h 18.71963 v 3.7863 z m 74.82266,1.0821 c -6.3481,0 -11.43378,-1.6952 -15.25706,-5.0857 -3.82327,-3.3905 -5.95132,-8.04333 -6.38415,-13.95859 h 5.4103 c 0.28855,4.40038 1.8395,7.86299 4.65286,10.38779 2.81335,2.5248 6.6727,3.7872 11.57805,3.7872 5.1217,0 9.0893,-1.587 11.9027,-4.7611 2.8854,-3.24615 4.3282,-7.75472 4.3282,-13.52571 v -7.1416 c 0,-5.62671 -1.4067,-9.99102 -4.22,-13.09293 -2.8134,-3.17404 -6.817,-4.76106 -12.0109,-4.76106 -3.75115,0 -6.88912,1.04599 -9.41393,3.13797 -2.52481,2.01985 -4.2561,4.90534 -5.19389,8.65648 h -5.4103 l 0.54103,-43.71522 h 38.95419 v 4.86927 h -33.7603 l -0.32462,33.00283 h 2.27233 l -2.70515,3.5708 c 0,-4.32824 1.55095,-7.79083 4.65285,-10.38778 3.17405,-2.66908 7.35801,-4.00362 12.55189,-4.00362 6.276,0 11.0731,1.98378 14.3914,5.95133 3.39046,3.89541 5.08566,9.48606 5.08566,16.77193 v 7.1416 c 0,7.06945 -1.94766,12.69611 -5.84306,16.88011 -3.8954,4.184 -9.1615,6.276 -15.7981,6.276 z"
       id="text182"
       style="font-size:108.206px;font-family:'JetBrains Mono';-inkscape-font-specification:'JetBrains Mono, @wght=100';font-variation-settings:'wght' 100;letter-spacing:-11.7422px;fill:#ffe680;stroke-width:36.0686;stroke-linecap:round;stroke-linejoin:round"
       aria-label="315"
       sodipodi:nodetypes="sccccsscsscsccccccccccssccsccccccccccccssccsscsscscccccccccccscssss" />
    <path
       d="m 988.55716,665.43871 q -0.81263,11.52025 -4.85189,19.67047 3.70465,4.94749 9.67988,8.72384 l -2.39009,3.41783 q -4.9475,-3.70464 -9.01065,-9.10625 -3.58514,5.49721 -9.99059,9.67987 l -2.3901,-2.96371 q 6.76397,-3.72855 10.32521,-9.65598 -3.10712,-4.80408 -4.63678,-11.83096 -1.26675,2.86811 -2.93982,5.73622 l -2.29449,-2.6052 -0.26291,0.23901 q -2.6052,2.67691 -6.45325,5.54502 v 1.69696 q 5.1148,-0.71702 9.10626,-1.50575 l 0.1434,2.7247 q -5.42551,1.17115 -9.24966,1.76867 v 7.28978 q 0,2.15109 -1.12334,2.96372 -0.95604,0.59752 -3.17883,0.59752 -2.43789,0 -4.75628,-0.33461 l -0.40632,-3.51344 q 2.5096,0.57362 4.61288,0.57362 1.67307,0 1.67307,-1.55356 v -5.52111 q -3.39393,0.45412 -9.84718,1.12334 l -0.88434,-3.08322 q 5.47331,-0.45411 10.3013,-1.02774 l 0.43022,-0.0478 v -3.03542 q 3.27443,-2.31839 4.85189,-4.01535 h -7.50489 q -3.89586,3.41783 -7.43319,5.61672 l -2.00768,-2.4857 q 6.33374,-3.51344 12.04607,-9.79938 h -11.52025 v -2.93981 h 8.96285 V 662.4033 H 950.961 v -2.84421 h 6.90737 v -5.87963 h 3.17882 v 5.87963 h 5.37771 v 2.5574 q 1.45796,-2.4857 3.03542,-6.38155 l 3.03542,1.43405 q -2.67691,5.66452 -6.02304,10.3252 h 5.0431 v 2.93982 h -7.28978 q -1.29065,1.60136 -3.68075,4.06316 h 8.03071 l 1.52966,1.67306 q 3.01152,-5.2343 4.54118,-11.52025 0.95604,-4.01535 1.86427,-10.77931 l 3.32223,0.64532 q -0.78873,5.44941 -1.26675,7.6961 h 13.83864 v 3.22662 z m -3.39393,0 h -7.33759 q -0.0956,0.33462 -0.35851,1.41016 -0.19121,0.74093 -0.31071,1.17114 1.41015,8.36533 4.49337,13.86254 2.5574,-6.09473 3.51344,-16.44384 z m -18.92954,-3.03541 h -5.49721 v 5.37771 h 1.86427 q 2.07938,-2.65301 3.63294,-5.37771 z m 50.78301,16.06142 v 5.52111 h 15.4161 v 3.03542 h -15.4161 v 5.87963 h 19.5749 v 3.13102 h -42.54365 v -3.13102 h 19.28805 v -5.87963 h -15.12929 v -3.03542 h 15.12929 v -5.3299 l -1.9599,0.0956 q -3.8958,0.21511 -12.04605,0.43022 l -1.26675,-3.17883 q 3.7285,0 5.0909,-0.0478 l 1.8165,-0.0478 q 2.0794,-3.25053 3.6568,-6.35765 h -8.0785 v -2.93981 h 29.5415 v 2.93981 h -17.3998 q -2.0316,3.60904 -4.0632,6.30985 l 1.9121,-0.0478 q 6.764,-0.0717 13.8625,-0.43022 l 1.1234,-0.0478 q -2.0555,-1.72087 -5.0431,-3.77635 l 2.653,-1.52966 q 5.2343,3.34613 10.8749,8.43703 l -2.7008,2.19889 q -1.4819,-1.55357 -3.0354,-2.93982 l -3.6808,0.28681 q -1.0277,0.0717 -3.5373,0.23901 -1.7209,0.0956 -2.6291,0.16731 z m 0,-18.95344 h 18.2843 v 10.03839 h -3.5852 v -7.05077 h -32.88767 v 7.05077 h -3.51343 v -10.03839 h 18.0213 v -5.83182 h 3.6807 z"
       id="text1"
       style="font-size:48.9491px;font-family:'JetBrains Mono';-inkscape-font-specification:'JetBrains Mono, @wght=100';font-variation-settings:'wght' 100;letter-spacing:-4.5237px;fill:#ffe680;stroke-width:2.26185;stroke-linecap:round;stroke-linejoin:round"
       aria-label="教室" />
    <path
       d="m 1299.4843,-60.588765 4.9814,6.336182 v 2.997028 l -3.9413,-4.981362 v 20.253887 h -2.0801 v -20.253887 l -3.955,4.981362 v -2.997028 z m 28.3553,25.78703 v -4.76459 h -5.185 v -2.466376 h 5.185 v -10.84645 h -8.0157 v -2.52243 h 8.0157 v -4.624455 h 2.9429 v 4.624455 h 8.3801 v 2.52243 h -8.3801 v 10.84645 h 4.9047 v 2.466376 h -4.9047 v 4.76459 z m -12.3879,0 v -18.021362 h 2.8868 v 18.021362 z m -1.9339,-9.473126 -1.1771,-3.363241 q 1.2893,-1.765701 2.2422,-3.699564 0.9809,-1.933863 1.7096,-4.091942 0.7287,-2.186106 1.2052,-4.708536 l 2.8027,0.504486 q -0.4485,2.662565 -1.2052,5.04486 -0.7567,2.354268 -1.7377,4.288131 l -0.028,-0.644621 q -0.3083,0.84081 -0.7567,1.737674 -0.4204,0.896864 -0.9529,1.821756 -0.5045,0.896864 -1.0651,1.709647 -0.5325,0.784756 -1.037,1.40135 z m 6.5864,5.913697 -1.9899,-2.298214 q 2.9989,-3.139024 5.1569,-6.362129 2.1861,-3.251133 3.4754,-6.530292 l 1.9899,1.065026 q -0.8969,2.550457 -2.1581,4.932752 -1.2612,2.382296 -2.8587,4.652483 -1.5976,2.270187 -3.6155,4.540374 z m 17.9653,-0.02803 q -1.8778,-2.270187 -3.4193,-4.568401 -1.5135,-2.298214 -2.7186,-4.68051 -1.1771,-2.410322 -2.046,-4.960779 l 2.102,-1.036999 q 1.1772,3.167051 3.111,6.278049 1.9619,3.110997 4.6525,6.137913 z m 4.4483,3.307186 v -14.237717 h 20.1794 v 10.874477 q 0,1.12108 -0.1121,1.793728 -0.1121,0.672648 -0.5045,0.980945 -0.3923,0.336324 -1.1771,0.420405 -0.7567,0.112108 -2.074,0.112108 -0.5325,0 -1.4574,-0.05605 -0.8969,-0.02803 -2.6626,-0.112108 l -0.056,-2.52243 q 1.4574,0.05605 2.3823,0.112108 0.9249,0.05605 1.4574,0.05605 0.5605,0 0.7847,-0.02803 0.2523,-0.02803 0.2803,-0.196189 0.056,-0.168162 0.056,-0.56054 v -0.980945 h -14.0135 v -2.158079 h 14.0135 v -1.625566 h -14.0135 v -2.186106 h 14.0135 v -1.597539 h -14.0135 v 11.911475 z m 5.0168,-16.17158 -2.4664,-1.093053 q 0.8409,-1.177134 1.6256,-2.410322 0.7848,-1.261215 1.4574,-2.550457 l 2.6065,0.924891 q -0.7007,1.317269 -1.5134,2.634538 -0.8128,1.289242 -1.7097,2.494403 z m -6.6984,0.812783 -0.1402,-2.298214 q 4.6805,-0.112108 9.8095,-0.392378 5.1569,-0.28027 10.426,-0.728702 l 0.2242,2.24216 q -5.3531,0.476459 -10.5101,0.784756 -5.1289,0.28027 -9.8094,0.392378 z m -0.8408,-5.437238 v -2.410322 h 11.0706 v -2.298214 h 3.083 v 2.298214 h 11.0707 v 2.410322 z m 22.5617,6.16594 q -1.4574,-1.68162 -3.083,-3.279159 -1.5975,-1.597539 -3.2231,-2.998889 l 2.3543,-1.289242 q 1.5695,1.317269 3.2231,2.914808 1.6816,1.597539 3.2511,3.307186 z m 17.5929,14.77023 v -19.25455 h 10.2299 v 7.623345 h -7.5112 v -2.186107 h 4.7085 v -3.08297 h -4.7085 v 7.287021 h 8.352 v 9.613261 h -2.8587 v -1.40135 h -5.4933 v -2.158079 h 5.4933 v -3.64351 h -5.4933 v 7.202939 z m -12.1917,-1.877809 V -54.19642 h 4.204 v -2.326241 h 2.8588 v 2.326241 h 3.4473 v 10.28591 h -7.6514 v -2.24216 h 4.9328 v -1.961891 h -4.9328 v -2.102025 h 4.9328 v -1.905836 h -4.9328 v 15.302743 z m -1.2892,1.877809 -0.5045,-2.382295 q 2.6065,-0.56054 5.1569,-1.289242 2.5785,-0.728702 5.185,-1.765701 l 0.8408,2.186106 q -2.6625,1.093053 -5.3251,1.877809 -2.6626,0.812783 -5.3531,1.373323 z m 10.6222,-0.84081 q -0.4484,-1.036999 -1.009,-2.158079 -0.5605,-1.149107 -1.1491,-2.298214 -0.5605,-1.149107 -1.1211,-2.186106 l 2.5785,-1.093053 q 0.8408,1.541485 1.7097,3.335213 0.8688,1.765701 1.5414,3.279159 z m -10.7344,-16.255661 -0.7847,-2.858754 q 1.7377,-1.177134 3.1951,-2.438349 1.4854,-1.261215 2.8587,-2.746646 h 3.3352 q 1.2052,1.205161 2.4664,2.270187 1.2893,1.065026 2.8027,2.102025 l -1.009,2.830727 q -1.6536,-1.261215 -3.111,-2.550457 -1.4293,-1.317269 -2.8027,-2.774673 -1.5134,1.765701 -3.2791,3.335213 -1.7657,1.569512 -3.6716,2.830727 z m 12.4721,0.420405 v -6.72648 h 4.5684 v -2.24216 h 2.9988 v 2.24216 h 5.4093 v 6.72648 h -2.8027 v -4.260104 h -7.5113 v 4.260104 z m 15.4348,16.535931 v -18.357686 h 11.2669 v 14.433906 q 0,1.373323 -0.084,2.158079 -0.084,0.784756 -0.3924,1.149107 -0.3083,0.364351 -1.0089,0.448432 -0.7007,0.112108 -1.9339,0.112108 -0.3644,0 -1.009,-0.05605 -0.6166,-0.05605 -1.5975,-0.112108 l -0.056,-2.578484 q 0.981,0.08408 1.4855,0.112108 0.5325,0.02803 0.7287,0.02803 0.5044,0 0.7006,-0.05605 0.2243,-0.08408 0.2523,-0.392378 0.056,-0.308297 0.056,-1.036999 v -1.737674 h -5.4933 v -2.298214 h 5.4933 v -2.746646 h -5.4933 v -2.298215 h 5.4933 v -2.690592 h -5.4933 v 15.919337 z m 13.5651,-5.184995 v -12.752286 h 2.8868 V -40.267 Z m 5.4092,5.184995 q -0.4484,0 -1.3173,-0.02803 -0.8688,-0.02803 -2.3262,-0.112108 l -0.1401,-2.718619 q 1.3172,0.08408 2.158,0.112108 0.8409,0 1.2052,0 0.5605,0 0.7848,-0.05605 0.2522,-0.08408 0.3083,-0.392378 0.084,-0.308297 0.084,-1.008972 v -14.433906 h 2.9709 v 14.574041 q 0,1.373323 -0.1121,2.186106 -0.1121,0.812783 -0.5045,1.205161 -0.3643,0.420405 -1.1211,0.532513 -0.7287,0.140135 -1.9899,0.140135 z M 1400.91,-55.821986 q -0.5325,-1.149107 -1.121,-2.24216 -0.5886,-1.12108 -1.1772,-2.102025 l 2.8308,-0.644621 q 0.6165,0.980945 1.1771,2.102025 0.5886,1.12108 1.1211,2.270187 z m -7.7915,0.784756 v -2.466376 h 25.2243 v 2.466376 z m 17.4889,-0.84081 -2.8868,-0.588567 q 0.6446,-1.065026 1.2332,-2.158079 0.6166,-1.12108 1.065,-2.158079 l 2.9148,0.532513 q -0.4484,1.036999 -1.065,2.186106 -0.5886,1.12108 -1.2612,2.186106 z m 21.6849,-4.710725 4.9813,6.336182 v 2.997028 l -3.9413,-4.981362 v 20.253887 h -2.0801 v -20.253887 l -3.955,4.981362 v -2.997028 z"
       id="text2"
       style="font-size:28.027px;font-family:'M PLUS 1';-inkscape-font-specification:'M PLUS 1, @wght=500';font-variation-settings:'wght' 500;letter-spacing:-1.46541px;fill:#181817;fill-opacity:0.988235;stroke-width:1.29508;stroke-linecap:round;stroke-linejoin:round"
       transform="matrix(0.51960015,0.37649623,-1.1791125,1.0701856,0,0)"
       aria-label="↑体育館前↑" />
  </g>
</svg>
